<?xml version="1.0" encoding="UTF-8"?>
<svg id="Layer_2" data-name="Layer 2" xmlns="http://www.w3.org/2000/svg" viewBox="0 0 734.6 52.34">
  <defs>
    <style>
      .cls-1 {
        fill: #fff;
        stroke-width: 0px;
      }
    </style>
  </defs>
  <g id="Layer_1-2" data-name="Layer 1">
    <g id="hero_text" data-name="hero text">
      <g>
        <path class="cls-1" d="m23.18,0c3.21,0,5.95.47,8.21,1.4,2.25.94,4.09,2.17,5.51,3.71,1.42,1.54,2.45,3.29,3.1,5.26.65,1.97.97,4.01.97,6.12s-.32,4.09-.97,6.08c-.65,1.99-1.68,3.76-3.1,5.29-1.42,1.54-3.25,2.77-5.51,3.71-2.26.94-4.99,1.4-8.21,1.4h-11.88v18.43H0V0h23.18Zm-3.1,24.19c1.3,0,2.54-.1,3.74-.29,1.2-.19,2.26-.56,3.17-1.12.91-.55,1.64-1.33,2.2-2.34.55-1.01.83-2.33.83-3.96s-.28-2.95-.83-3.96c-.55-1.01-1.29-1.79-2.2-2.34-.91-.55-1.97-.92-3.17-1.12-1.2-.19-2.45-.29-3.74-.29h-8.78v15.41h8.78Z"/>
        <path class="cls-1" d="m72.14,51.41v-5.18h-.22c-1.3,2.16-2.98,3.72-5.04,4.68-2.06.96-4.18,1.44-6.34,1.44-2.74,0-4.98-.36-6.73-1.08-1.75-.72-3.13-1.74-4.14-3.06-1.01-1.32-1.72-2.93-2.12-4.82-.41-1.9-.61-4-.61-6.3V14.18h10.22v21.02c0,3.07.48,5.36,1.44,6.88.96,1.51,2.66,2.27,5.11,2.27,2.78,0,4.8-.83,6.05-2.48,1.25-1.66,1.87-4.38,1.87-8.17V14.18h10.22v37.22h-9.72Z"/>
        <path class="cls-1" d="m99.36,14.18v6.91h.14c.48-1.15,1.13-2.22,1.94-3.2.82-.98,1.75-1.82,2.81-2.52,1.06-.7,2.18-1.24,3.38-1.62,1.2-.38,2.45-.58,3.74-.58.67,0,1.42.12,2.23.36v9.5c-.48-.1-1.06-.18-1.73-.25-.67-.07-1.32-.11-1.94-.11-1.87,0-3.46.31-4.75.94-1.3.62-2.34,1.48-3.13,2.56s-1.36,2.34-1.69,3.78c-.34,1.44-.5,3-.5,4.68v16.78h-10.22V14.18h9.72Z"/>
        <path class="cls-1" d="m127.29,42.48c1.54,1.49,3.74,2.23,6.62,2.23,2.06,0,3.84-.52,5.33-1.55,1.49-1.03,2.4-2.12,2.74-3.28h9c-1.44,4.46-3.65,7.66-6.62,9.58-2.98,1.92-6.58,2.88-10.8,2.88-2.93,0-5.57-.47-7.92-1.4-2.35-.94-4.34-2.27-5.98-4-1.63-1.73-2.89-3.79-3.78-6.19-.89-2.4-1.33-5.04-1.33-7.92s.46-5.38,1.37-7.78c.91-2.4,2.21-4.48,3.89-6.23,1.68-1.75,3.68-3.13,6.01-4.14,2.33-1.01,4.91-1.51,7.74-1.51,3.17,0,5.93.61,8.28,1.84,2.35,1.22,4.28,2.87,5.8,4.93,1.51,2.06,2.6,4.42,3.28,7.06.67,2.64.91,5.4.72,8.28h-26.86c.14,3.31.98,5.71,2.52,7.2Zm11.56-19.58c-1.22-1.34-3.08-2.02-5.58-2.02-1.63,0-2.99.28-4.07.83-1.08.55-1.94,1.24-2.59,2.05-.65.82-1.11,1.68-1.37,2.59-.26.91-.42,1.73-.47,2.45h16.63c-.48-2.59-1.33-4.56-2.56-5.9Z"/>
        <path class="cls-1" d="m201.96,0c3.21,0,5.95.47,8.21,1.4,2.25.94,4.09,2.17,5.51,3.71,1.42,1.54,2.45,3.29,3.1,5.26.65,1.97.97,4.01.97,6.12s-.32,4.09-.97,6.08c-.65,1.99-1.68,3.76-3.1,5.29-1.42,1.54-3.25,2.77-5.51,3.71-2.26.94-4.99,1.4-8.21,1.4h-11.88v18.43h-11.3V0h23.18Zm-3.1,24.19c1.3,0,2.54-.1,3.74-.29,1.2-.19,2.26-.56,3.17-1.12.91-.55,1.64-1.33,2.2-2.34.55-1.01.83-2.33.83-3.96s-.28-2.95-.83-3.96c-.55-1.01-1.29-1.79-2.2-2.34-.91-.55-1.97-.92-3.17-1.12-1.2-.19-2.45-.29-3.74-.29h-8.78v15.41h8.78Z"/>
        <path class="cls-1" d="m226.01,8.42V0h10.22v8.42h-10.22Zm10.22,5.76v37.22h-10.22V14.18h10.22Z"/>
        <path class="cls-1" d="m241.56,14.18h11.66l6.55,9.72,6.48-9.72h11.3l-12.24,17.42,13.75,19.8h-11.66l-7.78-11.74-7.78,11.74h-11.45l13.39-19.58-12.24-17.64Z"/>
        <path class="cls-1" d="m293.9,42.48c1.54,1.49,3.74,2.23,6.62,2.23,2.06,0,3.84-.52,5.33-1.55,1.49-1.03,2.4-2.12,2.74-3.28h9c-1.44,4.46-3.65,7.66-6.62,9.58-2.98,1.92-6.58,2.88-10.8,2.88-2.93,0-5.57-.47-7.92-1.4-2.35-.94-4.34-2.27-5.98-4-1.63-1.73-2.89-3.79-3.78-6.19-.89-2.4-1.33-5.04-1.33-7.92s.46-5.38,1.37-7.78c.91-2.4,2.21-4.48,3.89-6.23,1.68-1.75,3.68-3.13,6.01-4.14,2.33-1.01,4.91-1.51,7.74-1.51,3.17,0,5.93.61,8.28,1.84,2.35,1.22,4.28,2.87,5.8,4.93,1.51,2.06,2.6,4.42,3.28,7.06.67,2.64.91,5.4.72,8.28h-26.86c.14,3.31.98,5.71,2.52,7.2Zm11.56-19.58c-1.22-1.34-3.08-2.02-5.58-2.02-1.63,0-2.99.28-4.07.83-1.08.55-1.94,1.24-2.59,2.05-.65.82-1.11,1.68-1.37,2.59-.26.91-.42,1.73-.47,2.45h16.63c-.48-2.59-1.33-4.56-2.56-5.9Z"/>
        <path class="cls-1" d="m334.8,0v51.41h-10.22V0h10.22Z"/>
        <path class="cls-1" d="m387.14,0c3.21,0,5.95.47,8.21,1.4,2.25.94,4.09,2.17,5.51,3.71,1.42,1.54,2.45,3.29,3.1,5.26.65,1.97.97,4.01.97,6.12s-.32,4.09-.97,6.08c-.65,1.99-1.68,3.76-3.1,5.29-1.42,1.54-3.25,2.77-5.51,3.71-2.26.94-4.99,1.4-8.21,1.4h-11.88v18.43h-11.3V0h23.18Zm-3.1,24.19c1.3,0,2.54-.1,3.74-.29,1.2-.19,2.26-.56,3.17-1.12.91-.55,1.64-1.33,2.2-2.34.55-1.01.83-2.33.83-3.96s-.28-2.95-.83-3.96c-.55-1.01-1.29-1.79-2.2-2.34-.91-.55-1.97-.92-3.17-1.12-1.2-.19-2.45-.29-3.74-.29h-8.78v15.41h8.78Z"/>
        <path class="cls-1" d="m421.84,42.48c1.54,1.49,3.74,2.23,6.62,2.23,2.06,0,3.84-.52,5.33-1.55,1.49-1.03,2.4-2.12,2.74-3.28h9c-1.44,4.46-3.65,7.66-6.62,9.58-2.98,1.92-6.58,2.88-10.8,2.88-2.93,0-5.57-.47-7.92-1.4-2.35-.94-4.34-2.27-5.98-4-1.63-1.73-2.89-3.79-3.78-6.19-.89-2.4-1.33-5.04-1.33-7.92s.46-5.38,1.37-7.78c.91-2.4,2.21-4.48,3.89-6.23,1.68-1.75,3.68-3.13,6.01-4.14,2.33-1.01,4.91-1.51,7.74-1.51,3.17,0,5.93.61,8.28,1.84,2.35,1.22,4.28,2.87,5.8,4.93,1.51,2.06,2.6,4.42,3.28,7.06.67,2.64.91,5.4.72,8.28h-26.86c.14,3.31.98,5.71,2.52,7.2Zm11.56-19.58c-1.22-1.34-3.08-2.02-5.58-2.02-1.63,0-2.99.28-4.07.83-1.08.55-1.94,1.24-2.59,2.05-.65.82-1.11,1.68-1.37,2.59-.26.91-.42,1.73-.47,2.45h16.63c-.48-2.59-1.33-4.56-2.56-5.9Z"/>
        <path class="cls-1" d="m461.95,14.18v6.91h.14c.48-1.15,1.13-2.22,1.94-3.2.82-.98,1.75-1.82,2.81-2.52,1.06-.7,2.18-1.24,3.38-1.62,1.2-.38,2.45-.58,3.74-.58.67,0,1.42.12,2.23.36v9.5c-.48-.1-1.06-.18-1.73-.25-.67-.07-1.32-.11-1.94-.11-1.87,0-3.46.31-4.75.94-1.3.62-2.34,1.48-3.13,2.56s-1.36,2.34-1.69,3.78c-.34,1.44-.5,3-.5,4.68v16.78h-10.22V14.18h9.72Z"/>
        <path class="cls-1" d="m481.75,21.02v-6.84h6.12v-2.88c0-3.31,1.03-6.02,3.1-8.14,2.06-2.11,5.18-3.17,9.36-3.17.91,0,1.82.04,2.74.11.91.07,1.8.13,2.66.18v7.63c-1.2-.14-2.45-.22-3.74-.22-1.39,0-2.39.32-2.99.97-.6.65-.9,1.74-.9,3.28v2.23h7.06v6.84h-7.06v30.38h-10.22v-30.38h-6.12Z"/>
        <path class="cls-1" d="m520.55,42.48c1.54,1.49,3.74,2.23,6.62,2.23,2.06,0,3.84-.52,5.33-1.55,1.49-1.03,2.4-2.12,2.74-3.28h9c-1.44,4.46-3.65,7.66-6.62,9.58-2.98,1.92-6.58,2.88-10.8,2.88-2.93,0-5.57-.47-7.92-1.4-2.35-.94-4.34-2.27-5.98-4-1.63-1.73-2.89-3.79-3.78-6.19-.89-2.4-1.33-5.04-1.33-7.92s.46-5.38,1.37-7.78c.91-2.4,2.21-4.48,3.89-6.23,1.68-1.75,3.68-3.13,6.01-4.14,2.33-1.01,4.91-1.51,7.74-1.51,3.17,0,5.93.61,8.28,1.84,2.35,1.22,4.28,2.87,5.8,4.93,1.51,2.06,2.6,4.42,3.28,7.06.67,2.64.91,5.4.72,8.28h-26.86c.14,3.31.98,5.71,2.52,7.2Zm11.56-19.58c-1.22-1.34-3.08-2.02-5.58-2.02-1.63,0-2.99.28-4.07.83-1.08.55-1.94,1.24-2.59,2.05-.65.82-1.11,1.68-1.37,2.59-.26.91-.42,1.73-.47,2.45h16.63c-.48-2.59-1.33-4.56-2.56-5.9Z"/>
        <path class="cls-1" d="m568.72,20.88c-1.63,0-3,.37-4.1,1.12-1.11.74-2,1.7-2.7,2.88-.7,1.18-1.19,2.47-1.48,3.89-.29,1.42-.43,2.82-.43,4.21s.14,2.71.43,4.1c.29,1.39.76,2.65,1.4,3.78.65,1.13,1.52,2.05,2.63,2.77,1.1.72,2.45,1.08,4.03,1.08,2.45,0,4.33-.68,5.65-2.05,1.32-1.37,2.15-3.2,2.48-5.51h9.86c-.67,4.94-2.59,8.71-5.76,11.3-3.17,2.59-7.22,3.89-12.17,3.89-2.79,0-5.34-.47-7.67-1.4-2.33-.94-4.31-2.24-5.94-3.92-1.63-1.68-2.9-3.68-3.82-6.01-.91-2.33-1.37-4.88-1.37-7.67s.42-5.56,1.26-8.03c.84-2.47,2.08-4.61,3.71-6.41,1.63-1.8,3.62-3.2,5.98-4.21,2.35-1.01,5.04-1.51,8.06-1.51,2.21,0,4.33.29,6.37.86,2.04.58,3.86,1.45,5.47,2.63,1.61,1.18,2.92,2.64,3.92,4.39,1.01,1.75,1.58,3.83,1.73,6.23h-10.01c-.67-4.27-3.19-6.41-7.56-6.41Z"/>
        <path class="cls-1" d="m612.71,14.18v6.84h-7.49v18.43c0,1.73.29,2.88.86,3.46.58.58,1.73.86,3.46.86.58,0,1.13-.02,1.66-.07.53-.05,1.03-.12,1.51-.22v7.92c-.86.14-1.82.24-2.88.29-1.06.05-2.09.07-3.1.07-1.58,0-3.08-.11-4.5-.32-1.42-.22-2.66-.64-3.74-1.26-1.08-.62-1.93-1.51-2.56-2.66-.62-1.15-.94-2.66-.94-4.54v-21.96h-6.19v-6.84h6.19V3.02h10.22v11.16h7.49Z"/>
        <path class="cls-1" d="m617.89,8.42V0h10.22v8.42h-10.22Zm10.22,5.76v37.22h-10.22V14.18h10.22Z"/>
        <path class="cls-1" d="m636.4,24.73c.91-2.42,2.21-4.49,3.89-6.19,1.68-1.7,3.7-3.02,6.05-3.96,2.35-.94,4.99-1.4,7.92-1.4s5.58.47,7.96,1.4,4.4,2.26,6.08,3.96c1.68,1.7,2.98,3.77,3.89,6.19.91,2.42,1.37,5.12,1.37,8.1s-.46,5.66-1.37,8.06c-.91,2.4-2.21,4.45-3.89,6.16-1.68,1.7-3.71,3.01-6.08,3.92-2.38.91-5.03,1.37-7.96,1.37s-5.57-.46-7.92-1.37c-2.35-.91-4.37-2.22-6.05-3.92-1.68-1.7-2.98-3.76-3.89-6.16-.91-2.4-1.37-5.09-1.37-8.06s.46-5.68,1.37-8.1Zm9.29,12.46c.29,1.42.78,2.69,1.48,3.82.7,1.13,1.62,2.03,2.77,2.7,1.15.67,2.59,1.01,4.32,1.01s3.18-.34,4.36-1.01c1.17-.67,2.11-1.57,2.81-2.7.7-1.13,1.19-2.4,1.48-3.82.29-1.42.43-2.87.43-4.36s-.14-2.95-.43-4.39c-.29-1.44-.78-2.71-1.48-3.82-.7-1.1-1.63-2-2.81-2.7-1.18-.7-2.63-1.04-4.36-1.04s-3.17.35-4.32,1.04c-1.15.7-2.08,1.6-2.77,2.7-.7,1.1-1.19,2.38-1.48,3.82-.29,1.44-.43,2.9-.43,4.39s.14,2.94.43,4.36Z"/>
        <path class="cls-1" d="m689.89,14.18v5.18h.22c1.3-2.16,2.98-3.73,5.04-4.72,2.06-.98,4.18-1.48,6.34-1.48,2.74,0,4.98.37,6.73,1.12,1.75.75,3.13,1.78,4.14,3.1,1.01,1.32,1.72,2.93,2.12,4.82.41,1.9.61,4,.61,6.3v22.9h-10.22v-21.02c0-3.07-.48-5.36-1.44-6.88-.96-1.51-2.66-2.27-5.11-2.27-2.78,0-4.8.83-6.05,2.48-1.25,1.66-1.87,4.38-1.87,8.17v19.51h-10.22V14.18h9.72Z"/>
        <path class="cls-1" d="m734.6,45.86h0c0,3.06-2.48,5.54-5.54,5.54h-.22c-3.06,0-5.54-2.48-5.54-5.54h0c0-3.06,2.48-5.54,5.54-5.54h.22c3.06,0,5.54,2.48,5.54,5.54Z"/>
      </g>
    </g>
  </g>
</svg>