<?xml version="1.0" encoding="UTF-8"?>
<svg id="Layer_2" data-name="Layer 2" xmlns="http://www.w3.org/2000/svg" viewBox="0 0 600 43.07">
  <defs>
    <style>
      .cls-1 {
        fill: #fff;
        stroke-width: 0px;
      }
    </style>
  </defs>
  <g id="Layer_1-2" data-name="Layer 1">
    <g id="hero_text" data-name="hero text">
      <g>
        <path class="cls-1" d="m19.08,0c2.65,0,4.9.39,6.75,1.16,1.86.77,3.37,1.79,4.53,3.05,1.16,1.26,2.01,2.71,2.55,4.32.53,1.62.8,3.3.8,5.04s-.27,3.37-.8,5.01c-.53,1.64-1.38,3.09-2.55,4.35-1.17,1.26-2.68,2.28-4.53,3.05-1.86.77-4.11,1.16-6.75,1.16h-9.77v15.17H0V0h19.08Zm-2.55,19.91c1.07,0,2.09-.08,3.08-.24.99-.16,1.86-.46,2.61-.92.75-.45,1.35-1.1,1.81-1.93.45-.83.68-1.92.68-3.26s-.23-2.43-.68-3.26c-.45-.83-1.06-1.47-1.81-1.93-.75-.45-1.62-.76-2.61-.92-.99-.16-2.01-.24-3.08-.24h-7.23v12.68h7.23Z"/>
        <path class="cls-1" d="m59.36,42.3v-4.27h-.18c-1.07,1.78-2.45,3.06-4.15,3.85-1.7.79-3.44,1.18-5.21,1.18-2.25,0-4.1-.3-5.54-.89-1.44-.59-2.58-1.43-3.41-2.52-.83-1.09-1.41-2.41-1.75-3.97-.34-1.56-.5-3.29-.5-5.18V11.67h8.41v17.3c0,2.53.39,4.41,1.18,5.66.79,1.24,2.19,1.87,4.21,1.87,2.29,0,3.95-.68,4.98-2.04,1.03-1.36,1.54-3.6,1.54-6.72V11.67h8.41v30.63h-8Z"/>
        <path class="cls-1" d="m81.75,11.67v5.69h.12c.39-.95.93-1.83,1.6-2.64.67-.81,1.44-1.5,2.31-2.07.87-.57,1.8-1.02,2.78-1.33.99-.32,2.01-.47,3.08-.47.55,0,1.16.1,1.84.3v7.82c-.4-.08-.87-.15-1.42-.21-.55-.06-1.09-.09-1.6-.09-1.54,0-2.84.26-3.91.77-1.07.51-1.93,1.21-2.58,2.1s-1.12,1.93-1.39,3.11c-.28,1.18-.41,2.47-.41,3.85v13.8h-8.41V11.67h8Z"/>
        <path class="cls-1" d="m104.74,34.95c1.26,1.22,3.08,1.84,5.45,1.84,1.7,0,3.16-.42,4.38-1.27,1.22-.85,1.97-1.75,2.25-2.7h7.41c-1.18,3.67-3,6.3-5.45,7.88-2.45,1.58-5.41,2.37-8.89,2.37-2.41,0-4.58-.39-6.52-1.16-1.94-.77-3.57-1.87-4.92-3.29-1.34-1.42-2.38-3.12-3.11-5.09-.73-1.97-1.1-4.15-1.1-6.52s.38-4.42,1.13-6.4c.75-1.97,1.82-3.68,3.2-5.12,1.38-1.44,3.03-2.58,4.95-3.41,1.91-.83,4.04-1.24,6.37-1.24,2.61,0,4.88.5,6.81,1.51,1.93,1.01,3.53,2.36,4.77,4.06,1.24,1.7,2.14,3.63,2.7,5.81.55,2.17.75,4.44.59,6.81h-22.1c.12,2.73.81,4.7,2.07,5.92Zm9.51-16.11c-1.01-1.11-2.54-1.66-4.59-1.66-1.34,0-2.46.23-3.35.68-.89.45-1.6,1.02-2.13,1.69-.53.67-.91,1.38-1.13,2.13-.22.75-.35,1.42-.39,2.01h13.69c-.4-2.13-1.1-3.75-2.1-4.86Z"/>
        <path class="cls-1" d="m166.17,0c2.65,0,4.9.39,6.75,1.16,1.86.77,3.37,1.79,4.53,3.05,1.16,1.26,2.01,2.71,2.55,4.32.53,1.62.8,3.3.8,5.04s-.27,3.37-.8,5.01c-.53,1.64-1.38,3.09-2.55,4.35-1.17,1.26-2.68,2.28-4.53,3.05-1.86.77-4.11,1.16-6.75,1.16h-9.77v15.17h-9.3V0h19.08Zm-2.55,19.91c1.07,0,2.09-.08,3.08-.24.99-.16,1.86-.46,2.61-.92.75-.45,1.35-1.1,1.81-1.93.45-.83.68-1.92.68-3.26s-.23-2.43-.68-3.26c-.45-.83-1.06-1.47-1.81-1.93-.75-.45-1.62-.76-2.61-.92-.99-.16-2.01-.24-3.08-.24h-7.23v12.68h7.23Z"/>
        <path class="cls-1" d="m185.96,6.93V0h8.41v6.93h-8.41Zm8.41,4.74v30.63h-8.41V11.67h8.41Z"/>
        <path class="cls-1" d="m198.76,11.67h9.6l5.39,8,5.33-8h9.3l-10.07,14.34,11.32,16.29h-9.6l-6.4-9.66-6.4,9.66h-9.42l11.02-16.11-10.07-14.51Z"/>
        <path class="cls-1" d="m241.83,34.95c1.26,1.22,3.08,1.84,5.45,1.84,1.7,0,3.16-.42,4.38-1.27,1.22-.85,1.97-1.75,2.25-2.7h7.41c-1.18,3.67-3,6.3-5.45,7.88-2.45,1.58-5.41,2.37-8.89,2.37-2.41,0-4.58-.39-6.52-1.16-1.94-.77-3.57-1.87-4.92-3.29-1.34-1.42-2.38-3.12-3.11-5.09-.73-1.97-1.1-4.15-1.1-6.52s.38-4.42,1.13-6.4c.75-1.97,1.82-3.68,3.2-5.12,1.38-1.44,3.03-2.58,4.95-3.41,1.91-.83,4.04-1.24,6.37-1.24,2.61,0,4.88.5,6.81,1.51,1.93,1.01,3.53,2.36,4.77,4.06,1.24,1.7,2.14,3.63,2.7,5.81.55,2.17.75,4.44.59,6.81h-22.1c.12,2.73.81,4.7,2.07,5.92Zm9.51-16.11c-1.01-1.11-2.54-1.66-4.59-1.66-1.34,0-2.46.23-3.35.68-.89.45-1.6,1.02-2.13,1.69-.53.67-.91,1.38-1.13,2.13-.22.75-.35,1.42-.39,2.01h13.69c-.4-2.13-1.1-3.75-2.1-4.86Z"/>
        <path class="cls-1" d="m275.47,0v42.3h-8.41V0h8.41Z"/>
        <path class="cls-1" d="m318.54,0c2.65,0,4.9.39,6.75,1.16,1.86.77,3.37,1.79,4.53,3.05,1.16,1.26,2.01,2.71,2.55,4.32.53,1.62.8,3.3.8,5.04s-.27,3.37-.8,5.01c-.53,1.64-1.38,3.09-2.55,4.35-1.17,1.26-2.68,2.28-4.53,3.05-1.86.77-4.11,1.16-6.75,1.16h-9.77v15.17h-9.3V0h19.08Zm-2.55,19.91c1.07,0,2.09-.08,3.08-.24.99-.16,1.86-.46,2.61-.92.75-.45,1.35-1.1,1.81-1.93.45-.83.68-1.92.68-3.26s-.23-2.43-.68-3.26c-.45-.83-1.06-1.47-1.81-1.93-.75-.45-1.62-.76-2.61-.92-.99-.16-2.01-.24-3.08-.24h-7.23v12.68h7.23Z"/>
        <path class="cls-1" d="m347.1,34.95c1.26,1.22,3.08,1.84,5.45,1.84,1.7,0,3.16-.42,4.38-1.27,1.22-.85,1.97-1.75,2.25-2.7h7.41c-1.18,3.67-3,6.3-5.45,7.88-2.45,1.58-5.41,2.37-8.89,2.37-2.41,0-4.58-.39-6.52-1.16-1.94-.77-3.57-1.87-4.92-3.29-1.34-1.42-2.38-3.12-3.11-5.09-.73-1.97-1.1-4.15-1.1-6.52s.38-4.42,1.13-6.4c.75-1.97,1.82-3.68,3.2-5.12,1.38-1.44,3.03-2.58,4.95-3.41,1.91-.83,4.04-1.24,6.37-1.24,2.61,0,4.88.5,6.81,1.51,1.93,1.01,3.53,2.36,4.77,4.06,1.24,1.7,2.14,3.63,2.7,5.81.55,2.17.75,4.44.59,6.81h-22.1c.12,2.73.81,4.7,2.07,5.92Zm9.51-16.11c-1.01-1.11-2.54-1.66-4.59-1.66-1.34,0-2.46.23-3.35.68-.89.45-1.6,1.02-2.13,1.69-.53.67-.91,1.38-1.13,2.13-.22.75-.35,1.42-.39,2.01h13.69c-.4-2.13-1.1-3.75-2.1-4.86Z"/>
        <path class="cls-1" d="m380.1,11.67v5.69h.12c.39-.95.93-1.83,1.6-2.64.67-.81,1.44-1.5,2.31-2.07.87-.57,1.8-1.02,2.78-1.33.99-.32,2.01-.47,3.08-.47.55,0,1.16.1,1.84.3v7.82c-.4-.08-.87-.15-1.42-.21-.55-.06-1.09-.09-1.6-.09-1.54,0-2.84.26-3.91.77-1.07.51-1.93,1.21-2.58,2.1s-1.12,1.93-1.39,3.11c-.28,1.18-.41,2.47-.41,3.85v13.8h-8.41V11.67h8Z"/>
        <path class="cls-1" d="m391.94,17.3v-5.63h5.04v-2.37c0-2.73.85-4.96,2.55-6.69,1.7-1.74,4.27-2.61,7.7-2.61.75,0,1.5.03,2.25.09.75.06,1.48.11,2.19.15v6.28c-.99-.12-2.01-.18-3.08-.18-1.15,0-1.97.27-2.46.8-.49.53-.74,1.43-.74,2.7v1.84h5.81v5.63h-5.81v25h-8.41v-25h-5.04Z"/>
        <path class="cls-1" d="m423.88,34.95c1.26,1.22,3.08,1.84,5.45,1.84,1.7,0,3.16-.42,4.38-1.27,1.22-.85,1.97-1.75,2.25-2.7h7.41c-1.18,3.67-3,6.3-5.45,7.88-2.45,1.58-5.41,2.37-8.89,2.37-2.41,0-4.58-.39-6.52-1.16-1.94-.77-3.57-1.87-4.92-3.29-1.34-1.42-2.38-3.12-3.11-5.09-.73-1.97-1.1-4.15-1.1-6.52s.38-4.42,1.13-6.4c.75-1.97,1.82-3.68,3.2-5.12,1.38-1.44,3.03-2.58,4.95-3.41,1.91-.83,4.04-1.24,6.37-1.24,2.61,0,4.88.5,6.81,1.51,1.93,1.01,3.53,2.36,4.77,4.06,1.24,1.7,2.14,3.63,2.7,5.81.55,2.17.75,4.44.59,6.81h-22.1c.12,2.73.81,4.7,2.07,5.92Zm9.51-16.11c-1.01-1.11-2.54-1.66-4.59-1.66-1.34,0-2.46.23-3.35.68-.89.45-1.6,1.02-2.13,1.69-.53.67-.91,1.38-1.13,2.13-.22.75-.35,1.42-.39,2.01h13.69c-.4-2.13-1.1-3.75-2.1-4.86Z"/>
        <path class="cls-1" d="m463.51,17.18c-1.34,0-2.47.31-3.38.92-.91.61-1.65,1.4-2.22,2.37-.57.97-.98,2.03-1.21,3.2-.24,1.17-.36,2.32-.36,3.47s.12,2.23.36,3.38c.24,1.15.62,2.18,1.16,3.11.53.93,1.25,1.69,2.16,2.28.91.59,2.01.89,3.32.89,2.01,0,3.56-.56,4.65-1.69,1.09-1.13,1.77-2.64,2.04-4.53h8.12c-.55,4.07-2.13,7.17-4.74,9.3-2.61,2.13-5.94,3.2-10.01,3.2-2.29,0-4.39-.39-6.31-1.16-1.92-.77-3.55-1.85-4.89-3.23-1.34-1.38-2.39-3.03-3.14-4.95-.75-1.92-1.12-4.02-1.12-6.31s.34-4.57,1.04-6.61c.69-2.03,1.71-3.79,3.05-5.27,1.34-1.48,2.98-2.64,4.92-3.47,1.93-.83,4.15-1.24,6.64-1.24,1.82,0,3.56.24,5.24.71,1.68.47,3.18,1.2,4.5,2.16,1.32.97,2.4,2.17,3.23,3.61.83,1.44,1.3,3.15,1.42,5.12h-8.23c-.55-3.51-2.63-5.27-6.22-5.27Z"/>
        <path class="cls-1" d="m499.7,11.67v5.63h-6.16v15.17c0,1.42.24,2.37.71,2.84.47.47,1.42.71,2.84.71.47,0,.93-.02,1.36-.06.43-.04.85-.1,1.24-.18v6.52c-.71.12-1.5.2-2.37.24-.87.04-1.72.06-2.55.06-1.3,0-2.54-.09-3.7-.27-1.17-.18-2.19-.52-3.08-1.04-.89-.51-1.59-1.24-2.1-2.19-.51-.95-.77-2.19-.77-3.73v-18.07h-5.1v-5.63h5.1V2.49h8.41v9.18h6.16Z"/>
        <path class="cls-1" d="m503.97,6.93V0h8.41v6.93h-8.41Zm8.41,4.74v30.63h-8.41V11.67h8.41Z"/>
        <path class="cls-1" d="m519.19,20.35c.75-1.99,1.82-3.69,3.2-5.1,1.38-1.4,3.04-2.49,4.98-3.26,1.93-.77,4.11-1.16,6.52-1.16s4.59.38,6.55,1.16,3.62,1.86,5.01,3.26c1.38,1.4,2.45,3.1,3.2,5.1.75,1.99,1.13,4.22,1.13,6.66s-.38,4.66-1.13,6.64c-.75,1.98-1.82,3.66-3.2,5.07-1.38,1.4-3.05,2.48-5.01,3.23-1.95.75-4.14,1.13-6.55,1.13s-4.58-.38-6.52-1.13c-1.94-.75-3.59-1.83-4.98-3.23-1.38-1.4-2.45-3.09-3.2-5.07-.75-1.97-1.12-4.19-1.12-6.64s.37-4.67,1.12-6.66Zm7.64,10.25c.24,1.17.64,2.21,1.21,3.14.57.93,1.33,1.67,2.28,2.22.95.55,2.13.83,3.55.83s2.62-.28,3.58-.83c.97-.55,1.74-1.29,2.31-2.22.57-.93.98-1.97,1.21-3.14.24-1.16.36-2.36.36-3.58s-.12-2.43-.36-3.61c-.24-1.19-.64-2.23-1.21-3.14-.57-.91-1.34-1.65-2.31-2.22-.97-.57-2.16-.86-3.58-.86s-2.61.29-3.55.86c-.95.57-1.71,1.31-2.28,2.22-.57.91-.98,1.95-1.21,3.14-.24,1.18-.36,2.39-.36,3.61s.12,2.42.36,3.58Z"/>
        <path class="cls-1" d="m563.21,11.67v4.27h.18c1.07-1.78,2.45-3.07,4.15-3.88,1.7-.81,3.44-1.21,5.21-1.21,2.25,0,4.1.31,5.54.92,1.44.61,2.58,1.46,3.41,2.55.83,1.09,1.41,2.41,1.75,3.97.34,1.56.5,3.29.5,5.18v18.84h-8.41v-17.3c0-2.53-.4-4.41-1.19-5.66-.79-1.24-2.19-1.87-4.21-1.87-2.29,0-3.95.68-4.98,2.04-1.03,1.36-1.54,3.6-1.54,6.72v16.05h-8.41V11.67h8Z"/>
        <path class="cls-1" d="m600,37.74h0c0,2.52-2.04,4.56-4.56,4.56h-.18c-2.52,0-4.56-2.04-4.56-4.56h0c0-2.52,2.04-4.56,4.56-4.56h.18c2.52,0,4.56,2.04,4.56,4.56Z"/>
      </g>
    </g>
  </g>
</svg>