<?xml version="1.0" encoding="UTF-8"?>
<svg id="Layer_2" data-name="Layer 2" xmlns="http://www.w3.org/2000/svg" viewBox="0 0 400 28.71">
  <defs>
    <style>
      .cls-1 {
        fill: #fff;
        stroke-width: 0px;
      }
    </style>
  </defs>
  <g id="Layer_1-2" data-name="Layer 1">
    <g id="hero_text" data-name="hero text">
      <g>
        <path class="cls-1" d="m12.72,0c1.76,0,3.26.26,4.5.77,1.24.51,2.24,1.19,3.02,2.03.78.84,1.34,1.8,1.7,2.88.36,1.08.53,2.2.53,3.36s-.18,2.25-.53,3.34c-.36,1.09-.92,2.06-1.7,2.9-.78.84-1.78,1.52-3.02,2.03-1.24.51-2.74.77-4.5.77h-6.52v10.11H0V0h12.72Zm-1.7,13.27c.71,0,1.4-.05,2.05-.16.66-.1,1.24-.31,1.74-.61.5-.3.9-.73,1.2-1.28.3-.55.45-1.28.45-2.17s-.15-1.62-.45-2.17c-.3-.55-.7-.98-1.2-1.28-.5-.3-1.08-.51-1.74-.61-.66-.1-1.34-.16-2.05-.16h-4.82v8.45h4.82Z"/>
        <path class="cls-1" d="m39.57,28.2v-2.84h-.12c-.71,1.18-1.63,2.04-2.76,2.57-1.13.53-2.29.79-3.48.79-1.5,0-2.73-.2-3.69-.59-.96-.39-1.72-.95-2.27-1.68-.55-.72-.94-1.61-1.17-2.65-.22-1.04-.34-2.19-.34-3.46V7.78h5.61v11.53c0,1.69.26,2.94.79,3.77.53.83,1.46,1.24,2.8,1.24,1.53,0,2.63-.45,3.32-1.36.68-.91,1.03-2.4,1.03-4.48V7.78h5.61v20.42h-5.33Z"/>
        <path class="cls-1" d="m54.5,7.78v3.79h.08c.26-.63.62-1.22,1.07-1.76.45-.54.96-1,1.54-1.38.58-.38,1.2-.68,1.86-.89.66-.21,1.34-.32,2.05-.32.37,0,.78.07,1.22.2v5.21c-.26-.05-.58-.1-.95-.14-.37-.04-.72-.06-1.07-.06-1.03,0-1.9.17-2.61.51-.71.34-1.28.81-1.72,1.4s-.74,1.28-.93,2.07c-.18.79-.28,1.65-.28,2.57v9.2h-5.61V7.78h5.33Z"/>
        <path class="cls-1" d="m69.83,23.3c.84.82,2.05,1.22,3.63,1.22,1.13,0,2.11-.28,2.92-.85.82-.57,1.32-1.17,1.5-1.8h4.94c-.79,2.45-2,4.2-3.63,5.25-1.63,1.05-3.61,1.58-5.92,1.58-1.61,0-3.05-.26-4.34-.77-1.29-.51-2.38-1.24-3.28-2.19-.9-.95-1.59-2.08-2.07-3.4-.49-1.32-.73-2.76-.73-4.34s.25-2.95.75-4.27c.5-1.32,1.21-2.45,2.13-3.42.92-.96,2.02-1.72,3.3-2.27,1.28-.55,2.69-.83,4.25-.83,1.74,0,3.25.34,4.54,1.01,1.29.67,2.35,1.57,3.18,2.71.83,1.13,1.43,2.42,1.8,3.87.37,1.45.5,2.96.39,4.54h-14.73c.08,1.82.54,3.13,1.38,3.95Zm6.34-10.74c-.67-.74-1.69-1.11-3.06-1.11-.9,0-1.64.15-2.23.45-.59.3-1.07.68-1.42,1.13-.36.45-.61.92-.75,1.42-.15.5-.23.95-.26,1.34h9.12c-.26-1.42-.73-2.5-1.4-3.24Z"/>
        <path class="cls-1" d="m110.78,0c1.76,0,3.26.26,4.5.77,1.24.51,2.24,1.19,3.02,2.03.78.84,1.34,1.8,1.7,2.88.36,1.08.53,2.2.53,3.36s-.18,2.25-.53,3.34c-.36,1.09-.92,2.06-1.7,2.9-.78.84-1.78,1.52-3.02,2.03-1.24.51-2.74.77-4.5.77h-6.52v10.11h-6.2V0h12.72Zm-1.7,13.27c.71,0,1.4-.05,2.05-.16.66-.1,1.24-.31,1.74-.61.5-.3.9-.73,1.2-1.28.3-.55.45-1.28.45-2.17s-.15-1.62-.45-2.17c-.3-.55-.7-.98-1.2-1.28-.5-.3-1.08-.51-1.74-.61-.66-.1-1.34-.16-2.05-.16h-4.82v8.45h4.82Z"/>
        <path class="cls-1" d="m123.97,4.62V0h5.61v4.62h-5.61Zm5.61,3.16v20.42h-5.61V7.78h5.61Z"/>
        <path class="cls-1" d="m132.5,7.78h6.4l3.59,5.33,3.55-5.33h6.2l-6.71,9.56,7.54,10.86h-6.4l-4.27-6.44-4.27,6.44h-6.28l7.35-10.74-6.71-9.68Z"/>
        <path class="cls-1" d="m161.22,23.3c.84.82,2.05,1.22,3.63,1.22,1.13,0,2.11-.28,2.92-.85.82-.57,1.32-1.17,1.5-1.8h4.94c-.79,2.45-2,4.2-3.63,5.25-1.63,1.05-3.61,1.58-5.92,1.58-1.61,0-3.05-.26-4.34-.77-1.29-.51-2.38-1.24-3.28-2.19-.9-.95-1.59-2.08-2.07-3.4-.49-1.32-.73-2.76-.73-4.34s.25-2.95.75-4.27c.5-1.32,1.21-2.45,2.13-3.42.92-.96,2.02-1.72,3.3-2.27,1.28-.55,2.69-.83,4.25-.83,1.74,0,3.25.34,4.54,1.01,1.29.67,2.35,1.57,3.18,2.71.83,1.13,1.43,2.42,1.8,3.87.37,1.45.5,2.96.39,4.54h-14.73c.08,1.82.54,3.13,1.38,3.95Zm6.34-10.74c-.67-.74-1.69-1.11-3.06-1.11-.9,0-1.64.15-2.23.45-.59.3-1.07.68-1.42,1.13-.36.45-.61.92-.75,1.42-.15.5-.23.95-.26,1.34h9.12c-.26-1.42-.73-2.5-1.4-3.24Z"/>
        <path class="cls-1" d="m183.65,0v28.2h-5.61V0h5.61Z"/>
        <path class="cls-1" d="m212.36,0c1.76,0,3.26.26,4.5.77,1.24.51,2.24,1.19,3.02,2.03.78.84,1.34,1.8,1.7,2.88.36,1.08.53,2.2.53,3.36s-.18,2.25-.53,3.34c-.36,1.09-.92,2.06-1.7,2.9-.78.84-1.78,1.52-3.02,2.03-1.24.51-2.74.77-4.5.77h-6.52v10.11h-6.2V0h12.72Zm-1.7,13.27c.71,0,1.4-.05,2.05-.16.66-.1,1.24-.31,1.74-.61.5-.3.9-.73,1.2-1.28.3-.55.45-1.28.45-2.17s-.15-1.62-.45-2.17c-.3-.55-.7-.98-1.2-1.28-.5-.3-1.08-.51-1.74-.61-.66-.1-1.34-.16-2.05-.16h-4.82v8.45h4.82Z"/>
        <path class="cls-1" d="m231.4,23.3c.84.82,2.05,1.22,3.63,1.22,1.13,0,2.11-.28,2.92-.85.82-.57,1.32-1.17,1.5-1.8h4.94c-.79,2.45-2,4.2-3.63,5.25-1.63,1.05-3.61,1.58-5.92,1.58-1.61,0-3.05-.26-4.34-.77-1.29-.51-2.38-1.24-3.28-2.19-.9-.95-1.59-2.08-2.07-3.4-.49-1.32-.73-2.76-.73-4.34s.25-2.95.75-4.27c.5-1.32,1.21-2.45,2.13-3.42.92-.96,2.02-1.72,3.3-2.27,1.28-.55,2.69-.83,4.25-.83,1.74,0,3.25.34,4.54,1.01,1.29.67,2.35,1.57,3.18,2.71.83,1.13,1.43,2.42,1.8,3.87.37,1.45.5,2.96.39,4.54h-14.73c.08,1.82.54,3.13,1.38,3.95Zm6.34-10.74c-.67-.74-1.69-1.11-3.06-1.11-.9,0-1.64.15-2.23.45-.59.3-1.07.68-1.42,1.13-.36.45-.61.92-.75,1.42-.15.5-.23.95-.26,1.34h9.12c-.26-1.42-.73-2.5-1.4-3.24Z"/>
        <path class="cls-1" d="m253.4,7.78v3.79h.08c.26-.63.62-1.22,1.07-1.76.45-.54.96-1,1.54-1.38.58-.38,1.2-.68,1.86-.89.66-.21,1.34-.32,2.05-.32.37,0,.78.07,1.22.2v5.21c-.26-.05-.58-.1-.95-.14-.37-.04-.72-.06-1.07-.06-1.03,0-1.9.17-2.61.51-.71.34-1.28.81-1.72,1.4s-.74,1.28-.93,2.07c-.18.79-.28,1.65-.28,2.57v9.2h-5.61V7.78h5.33Z"/>
        <path class="cls-1" d="m261.3,11.53v-3.75h3.36v-1.58c0-1.82.57-3.3,1.7-4.46,1.13-1.16,2.84-1.74,5.13-1.74.5,0,1,.02,1.5.06.5.04.99.07,1.46.1v4.19c-.66-.08-1.34-.12-2.05-.12-.76,0-1.31.18-1.64.53-.33.36-.49.95-.49,1.8v1.22h3.87v3.75h-3.87v16.67h-5.61V11.53h-3.36Z"/>
        <path class="cls-1" d="m282.58,23.3c.84.82,2.05,1.22,3.63,1.22,1.13,0,2.11-.28,2.92-.85.82-.57,1.32-1.17,1.5-1.8h4.94c-.79,2.45-2,4.2-3.63,5.25-1.63,1.05-3.61,1.58-5.92,1.58-1.61,0-3.05-.26-4.34-.77-1.29-.51-2.38-1.24-3.28-2.19-.9-.95-1.59-2.08-2.07-3.4-.49-1.32-.73-2.76-.73-4.34s.25-2.95.75-4.27c.5-1.32,1.21-2.45,2.13-3.42.92-.96,2.02-1.72,3.3-2.27,1.28-.55,2.69-.83,4.25-.83,1.74,0,3.25.34,4.54,1.01,1.29.67,2.35,1.57,3.18,2.71.83,1.13,1.43,2.42,1.8,3.87.37,1.45.5,2.96.39,4.54h-14.73c.08,1.82.54,3.13,1.38,3.95Zm6.34-10.74c-.67-.74-1.69-1.11-3.06-1.11-.9,0-1.64.15-2.23.45-.59.3-1.07.68-1.42,1.13-.36.45-.61.92-.75,1.42-.15.5-.23.95-.26,1.34h9.12c-.26-1.42-.73-2.5-1.4-3.24Z"/>
        <path class="cls-1" d="m309.01,11.45c-.9,0-1.65.2-2.25.61-.61.41-1.1.94-1.48,1.58-.38.65-.65,1.36-.81,2.13-.16.78-.24,1.55-.24,2.31s.08,1.49.24,2.25c.16.76.42,1.46.77,2.07.36.62.84,1.13,1.44,1.52.61.39,1.34.59,2.21.59,1.34,0,2.38-.38,3.1-1.13.72-.75,1.18-1.76,1.36-3.02h5.41c-.37,2.71-1.42,4.78-3.16,6.2-1.74,1.42-3.96,2.13-6.67,2.13-1.53,0-2.93-.26-4.21-.77-1.28-.51-2.36-1.23-3.26-2.15-.9-.92-1.59-2.02-2.09-3.3-.5-1.28-.75-2.68-.75-4.21s.23-3.05.69-4.4c.46-1.36,1.14-2.53,2.03-3.51.89-.99,1.99-1.76,3.28-2.31,1.29-.55,2.76-.83,4.42-.83,1.21,0,2.38.16,3.5.47,1.12.32,2.12.8,3,1.44.88.65,1.6,1.45,2.15,2.41.55.96.87,2.1.95,3.42h-5.49c-.37-2.34-1.75-3.51-4.15-3.51Z"/>
        <path class="cls-1" d="m333.14,7.78v3.75h-4.11v10.11c0,.95.16,1.58.47,1.9.32.32.95.47,1.9.47.32,0,.62-.01.91-.04.29-.03.57-.07.83-.12v4.34c-.47.08-1,.13-1.58.16-.58.03-1.15.04-1.7.04-.87,0-1.69-.06-2.47-.18-.78-.12-1.46-.35-2.05-.69-.59-.34-1.06-.83-1.4-1.46-.34-.63-.51-1.46-.51-2.49v-12.05h-3.4v-3.75h3.4V1.66h5.61v6.12h4.11Z"/>
        <path class="cls-1" d="m335.98,4.62V0h5.61v4.62h-5.61Zm5.61,3.16v20.42h-5.61V7.78h5.61Z"/>
        <path class="cls-1" d="m346.13,13.57c.5-1.33,1.21-2.46,2.13-3.4.92-.93,2.03-1.66,3.32-2.17,1.29-.51,2.74-.77,4.34-.77s3.06.26,4.36.77,2.42,1.24,3.34,2.17c.92.94,1.63,2.07,2.13,3.4.5,1.33.75,2.81.75,4.44s-.25,3.11-.75,4.42c-.5,1.32-1.21,2.44-2.13,3.38-.92.93-2.03,1.65-3.34,2.15-1.3.5-2.76.75-4.36.75s-3.05-.25-4.34-.75c-1.29-.5-2.4-1.22-3.32-2.15-.92-.93-1.63-2.06-2.13-3.38-.5-1.32-.75-2.79-.75-4.42s.25-3.11.75-4.44Zm5.09,6.83c.16.78.43,1.48.81,2.09.38.62.89,1.11,1.52,1.48.63.37,1.42.55,2.37.55s1.74-.18,2.39-.55c.64-.37,1.16-.86,1.54-1.48.38-.62.65-1.32.81-2.09.16-.78.24-1.57.24-2.39s-.08-1.62-.24-2.41c-.16-.79-.43-1.49-.81-2.09-.38-.61-.9-1.1-1.54-1.48-.65-.38-1.44-.57-2.39-.57s-1.74.19-2.37.57c-.63.38-1.14.88-1.52,1.48-.38.61-.65,1.3-.81,2.09-.16.79-.24,1.59-.24,2.41s.08,1.61.24,2.39Z"/>
        <path class="cls-1" d="m375.47,7.78v2.84h.12c.71-1.18,1.63-2.05,2.76-2.59,1.13-.54,2.29-.81,3.48-.81,1.5,0,2.73.2,3.69.61.96.41,1.72.97,2.27,1.7.55.72.94,1.61,1.17,2.65.22,1.04.34,2.19.34,3.46v12.56h-5.61v-11.53c0-1.68-.26-2.94-.79-3.77-.53-.83-1.46-1.24-2.8-1.24-1.53,0-2.63.45-3.32,1.36-.69.91-1.03,2.4-1.03,4.48v10.7h-5.61V7.78h5.33Z"/>
        <path class="cls-1" d="m400,25.16h0c0,1.68-1.36,3.04-3.04,3.04h-.12c-1.68,0-3.04-1.36-3.04-3.04h0c0-1.68,1.36-3.04,3.04-3.04h.12c1.68,0,3.04,1.36,3.04,3.04Z"/>
      </g>
    </g>
  </g>
</svg>