<?xml version="1.0" encoding="UTF-8"?>
<svg id="Layer_2" data-name="Layer 2" xmlns="http://www.w3.org/2000/svg" viewBox="0 0 249.26 65.45">
  <defs>
    <style>
      .cls-1 {
        fill: #fff;
        stroke-width: 0px;
      }
    </style>
  </defs>
  <g id="Layer_1-2" data-name="Layer 1">
    <g id="section_headers" data-name="section headers">
      <g id="design">
        <path class="cls-1" d="m22.18,0c3.31,0,6.4.53,9.25,1.58,2.86,1.06,5.33,2.64,7.42,4.75,2.09,2.11,3.72,4.75,4.9,7.92,1.18,3.17,1.76,6.89,1.76,11.16,0,3.74-.48,7.2-1.44,10.37-.96,3.17-2.41,5.9-4.36,8.21s-4.37,4.12-7.27,5.44c-2.9,1.32-6.32,1.98-10.26,1.98H0V0h22.18Zm-.79,41.9c1.63,0,3.21-.26,4.75-.79,1.54-.53,2.9-1.4,4.1-2.63,1.2-1.22,2.16-2.82,2.88-4.79.72-1.97,1.08-4.37,1.08-7.2,0-2.59-.25-4.93-.76-7.02s-1.33-3.88-2.48-5.36c-1.15-1.49-2.68-2.63-4.57-3.42-1.9-.79-4.24-1.19-7.02-1.19h-8.06v32.4h10.08Z"/>
        <path class="cls-1" d="m63.22,42.48c1.54,1.49,3.74,2.23,6.62,2.23,2.06,0,3.84-.51,5.33-1.55,1.49-1.03,2.4-2.12,2.74-3.28h9c-1.44,4.46-3.65,7.66-6.62,9.58-2.98,1.92-6.58,2.88-10.8,2.88-2.93,0-5.57-.47-7.92-1.4-2.35-.94-4.34-2.27-5.98-4-1.63-1.73-2.89-3.79-3.78-6.19-.89-2.4-1.33-5.04-1.33-7.92s.46-5.38,1.37-7.78c.91-2.4,2.21-4.48,3.89-6.23,1.68-1.75,3.68-3.13,6.01-4.14s4.91-1.51,7.74-1.51c3.17,0,5.93.61,8.28,1.84,2.35,1.22,4.28,2.87,5.8,4.93,1.51,2.06,2.6,4.42,3.28,7.06.67,2.64.91,5.4.72,8.28h-26.86c.14,3.31.98,5.71,2.52,7.2Zm11.56-19.58c-1.22-1.34-3.08-2.02-5.58-2.02-1.63,0-2.99.28-4.07.83-1.08.55-1.94,1.24-2.59,2.05-.65.82-1.1,1.68-1.37,2.59-.26.91-.42,1.73-.47,2.45h16.63c-.48-2.59-1.33-4.56-2.56-5.9Z"/>
        <path class="cls-1" d="m102.2,42.16c.46.79,1.04,1.44,1.76,1.94s1.55.88,2.48,1.12c.94.24,1.91.36,2.92.36.72,0,1.48-.08,2.27-.25.79-.17,1.51-.43,2.16-.79.65-.36,1.19-.84,1.62-1.44.43-.6.65-1.36.65-2.27,0-1.54-1.02-2.69-3.06-3.46-2.04-.77-4.88-1.54-8.53-2.3-1.49-.34-2.94-.73-4.36-1.19-1.42-.46-2.68-1.05-3.78-1.8-1.11-.74-1.99-1.68-2.66-2.81-.67-1.13-1.01-2.51-1.01-4.14,0-2.4.47-4.37,1.4-5.9.94-1.54,2.17-2.75,3.71-3.64,1.54-.89,3.26-1.51,5.18-1.87,1.92-.36,3.89-.54,5.9-.54s3.97.19,5.87.58c1.9.38,3.59,1.03,5.08,1.94,1.49.91,2.72,2.12,3.71,3.64.98,1.51,1.57,3.42,1.76,5.72h-9.72c-.14-1.97-.89-3.3-2.23-4-1.34-.7-2.93-1.04-4.75-1.04-.58,0-1.2.04-1.87.11-.67.07-1.29.23-1.84.47-.55.24-1.02.59-1.4,1.04-.38.46-.58,1.07-.58,1.84,0,.91.33,1.66,1.01,2.23.67.58,1.55,1.04,2.63,1.4,1.08.36,2.32.68,3.71.97,1.39.29,2.81.6,4.25.94,1.49.34,2.94.74,4.36,1.22,1.42.48,2.67,1.12,3.78,1.91s1.99,1.78,2.66,2.95c.67,1.18,1.01,2.63,1.01,4.36,0,2.45-.49,4.5-1.48,6.16-.98,1.66-2.27,2.99-3.85,4s-3.4,1.72-5.44,2.12-4.12.61-6.23.61-4.27-.22-6.34-.65c-2.06-.43-3.9-1.15-5.51-2.16-1.61-1.01-2.93-2.34-3.96-4s-1.6-3.73-1.69-6.23h9.72c0,1.1.23,2.05.68,2.84Z"/>
        <path class="cls-1" d="m132.55,8.42V0h10.22v8.42h-10.22Zm10.22,5.76v37.22h-10.22V14.18h10.22Z"/>
        <path class="cls-1" d="m186.01,54.14c-.41,1.92-1.28,3.71-2.63,5.36-1.34,1.66-3.29,3.06-5.83,4.21-2.54,1.15-5.95,1.73-10.22,1.73-1.83,0-3.68-.23-5.58-.68-1.9-.46-3.62-1.17-5.18-2.12-1.56-.96-2.86-2.2-3.89-3.71-1.03-1.51-1.62-3.33-1.76-5.44h10.15c.48,1.92,1.42,3.25,2.81,4,1.39.74,3,1.12,4.82,1.12,2.88,0,4.98-.86,6.3-2.59,1.32-1.73,1.96-3.91,1.91-6.55v-4.9h-.14c-1.1,1.97-2.68,3.42-4.72,4.36-2.04.94-4.19,1.4-6.44,1.4-2.78,0-5.18-.49-7.2-1.48-2.02-.98-3.67-2.33-4.97-4.03-1.3-1.7-2.24-3.7-2.84-5.98-.6-2.28-.9-4.69-.9-7.24,0-2.4.35-4.72,1.04-6.95.7-2.23,1.72-4.2,3.06-5.9,1.34-1.7,3.01-3.06,5-4.07,1.99-1.01,4.28-1.51,6.88-1.51,2.45,0,4.6.46,6.44,1.37,1.85.91,3.39,2.45,4.64,4.61h.14v-4.97h9.72v34.85c0,1.49-.21,3.19-.61,5.11Zm-14-12.38c1.1-.58,2.02-1.34,2.74-2.3.72-.96,1.26-2.05,1.62-3.28.36-1.22.54-2.51.54-3.85,0-1.54-.14-2.99-.43-4.36-.29-1.37-.77-2.58-1.44-3.64-.67-1.05-1.56-1.9-2.66-2.52-1.11-.62-2.5-.94-4.18-.94-1.44,0-2.68.29-3.71.86-1.03.58-1.9,1.36-2.59,2.34-.7.98-1.2,2.11-1.51,3.38-.31,1.27-.47,2.6-.47,4s.13,2.68.4,4c.26,1.32.72,2.51,1.37,3.56.65,1.06,1.5,1.92,2.56,2.59,1.06.67,2.38,1.01,3.96,1.01,1.44,0,2.71-.29,3.82-.86Z"/>
        <path class="cls-1" d="m204.55,14.18v5.18h.22c1.3-2.16,2.98-3.73,5.04-4.72,2.06-.98,4.18-1.48,6.34-1.48,2.74,0,4.98.37,6.73,1.12,1.75.75,3.13,1.78,4.14,3.1s1.72,2.93,2.12,4.82c.41,1.9.61,4,.61,6.3v22.9h-10.22v-21.02c0-3.07-.48-5.36-1.44-6.88-.96-1.51-2.66-2.27-5.11-2.27-2.79,0-4.8.83-6.05,2.48-1.25,1.66-1.87,4.38-1.87,8.17v19.51h-10.22V14.18h9.72Z"/>
        <path class="cls-1" d="m249.26,45.86h0c0,3.06-2.48,5.54-5.54,5.54h-.22c-3.06,0-5.54-2.48-5.54-5.54h0c0-3.06,2.48-5.54,5.54-5.54h.22c3.06,0,5.54,2.48,5.54,5.54Z"/>
      </g>
    </g>
  </g>
</svg>