<?xml version="1.0" encoding="UTF-8"?>
<svg id="Layer_2" data-name="Layer 2" xmlns="http://www.w3.org/2000/svg" viewBox="0 0 313.01 352.65">
  <defs>
    <style>
      .cls-1 {
        fill: #444;
      }

      .cls-1, .cls-2, .cls-3, .cls-4, .cls-5 {
        stroke-width: 0px;
      }

      .cls-2 {
        fill: red;
      }

      .cls-3 {
        fill: #f4f4f4;
      }

      .cls-4 {
        fill: lime;
      }

      .cls-5 {
        fill: blue;
      }
    </style>
  </defs>
  <g id="Layer_2-2" data-name="Layer 2">
    <circle class="cls-1" cx="156.51" cy="156.51" r="156.51"/>
    <g id="C">
      <g>
        <path class="cls-2" d="M214.66,182.97c-5.68,0-10.69,2.76-13.82,7.01l7.93,26.29c1.84.67,3.82,1.06,5.89,1.06,9.49,0,17.18-7.69,17.18-17.18s-7.69-17.18-17.18-17.18Z"/>
        <path class="cls-4" d="M218.66,186.97c-5.68,0-10.69,2.76-13.82,7.01l7.93,26.29c1.84.67,3.82,1.06,5.89,1.06,9.49,0,17.18-7.69,17.18-17.18s-7.69-17.18-17.18-17.18Z"/>
        <path class="cls-5" d="M214.66,190.97c-5.68,0-10.69,2.76-13.82,7.01l7.93,26.29c1.84.67,3.82,1.06,5.89,1.06,9.49,0,17.18-7.69,17.18-17.18s-7.69-17.18-17.18-17.18Z"/>
        <path class="cls-3" d="M214.66,186.97c-5.68,0-10.69,2.76-13.82,7.01l7.93,26.29c1.84.67,3.82,1.06,5.89,1.06,9.49,0,17.18-7.69,17.18-17.18s-7.69-17.18-17.18-17.18Z"/>
      </g>
      <g>
        <polygon class="cls-2" points="147.79 82.81 160.69 125.56 192.44 82.81 147.79 82.81"/>
        <polygon class="cls-2" points="206.56 222.2 161.91 222.2 193.66 179.45 206.56 222.2"/>
        <path class="cls-2" d="M143.83,222.2h-1.78c-12.35,0-24.49-3.6-34.62-10.67-.07-.05-.14-.1-.21-.15-18.17-12.8-30.04-33.94-30.04-57.85,0-33.21,22.89-61.06,53.75-68.67v94.6l12.9,42.74Z"/>
      </g>
      <g>
        <polygon class="cls-4" points="151.79 86.81 164.69 129.56 196.44 86.81 151.79 86.81"/>
        <polygon class="cls-4" points="210.56 226.2 165.91 226.2 197.66 183.45 210.56 226.2"/>
        <path class="cls-4" d="M147.83,226.2h-1.78c-12.35,0-24.49-3.6-34.62-10.67-.07-.05-.14-.1-.21-.15-18.17-12.8-30.04-33.94-30.04-57.85,0-33.21,22.89-61.06,53.75-68.67v94.6l12.9,42.74Z"/>
      </g>
      <g>
        <polygon class="cls-5" points="148.82 90.81 161.72 133.56 193.47 90.81 148.82 90.81"/>
        <polygon class="cls-5" points="206.56 230.2 161.91 230.2 193.66 187.45 206.56 230.2"/>
        <path class="cls-5" d="M143.83,230.2h-1.78c-12.35,0-24.49-3.6-34.62-10.67-.07-.05-.14-.1-.21-.15-18.17-12.8-30.04-33.94-30.04-57.85,0-33.21,22.89-61.06,53.75-68.67v94.6l12.9,42.74Z"/>
      </g>
      <g>
        <polygon class="cls-3" points="147.79 86.81 160.69 129.56 192.44 86.81 147.79 86.81"/>
        <polygon class="cls-3" points="206.56 226.2 161.91 226.2 193.66 183.45 206.56 226.2"/>
        <path class="cls-3" d="M143.83,226.2h-1.78c-12.35,0-24.49-3.6-34.62-10.67-.07-.05-.14-.1-.21-.15-18.17-12.8-30.04-33.94-30.04-57.85,0-33.21,22.89-61.06,53.75-68.67v94.6l12.9,42.74Z"/>
      </g>
    </g>
    <g>
      <path class="cls-3" d="M56.66,351.03c-1-1.08-1.49-2.6-1.49-4.57v-13.54c0-1.97.5-3.49,1.49-4.57s2.44-1.62,4.34-1.62,3.34.54,4.34,1.62,1.49,2.6,1.49,4.57v2.66h-3.74v-2.92c0-1.56-.66-2.34-1.98-2.34s-1.98.78-1.98,2.34v14.08c0,1.54.66,2.3,1.98,2.3s1.98-.77,1.98-2.3v-3.85h3.74v3.56c0,1.97-.5,3.49-1.49,4.57s-2.44,1.62-4.34,1.62-3.34-.54-4.34-1.62Z"/>
      <path class="cls-3" d="M69.21,327.09h5.87c2.04,0,3.53.47,4.46,1.42.94.95,1.4,2.41,1.4,4.37v1.55c0,2.62-.86,4.27-2.59,4.97v.07c.96.29,1.64.88,2.03,1.76.4.89.59,2.08.59,3.56v4.43c0,.72.02,1.3.07,1.75.05.44.17.88.36,1.31h-4.03c-.14-.41-.24-.79-.29-1.15-.05-.36-.07-1.01-.07-1.94v-4.61c0-1.15-.19-1.96-.56-2.41-.37-.46-1.01-.68-1.93-.68h-1.37v10.8h-3.96v-25.2ZM74.61,337.89c.79,0,1.39-.2,1.78-.61.4-.41.59-1.09.59-2.05v-1.94c0-.91-.16-1.57-.49-1.98-.32-.41-.83-.61-1.53-.61h-1.8v7.2h1.44Z"/>
      <path class="cls-3" d="M84.98,351c-1.03-1.1-1.55-2.66-1.55-4.68v-13.25c0-2.02.52-3.58,1.55-4.68,1.03-1.1,2.52-1.66,4.46-1.66s3.43.55,4.46,1.66c1.03,1.1,1.55,2.66,1.55,4.68v13.25c0,2.02-.52,3.58-1.55,4.68-1.03,1.1-2.52,1.66-4.46,1.66s-3.43-.55-4.46-1.66ZM91.49,346.57v-13.75c0-1.66-.68-2.48-2.05-2.48s-2.05.83-2.05,2.48v13.75c0,1.66.68,2.48,2.05,2.48s2.05-.83,2.05-2.48Z"/>
      <path class="cls-3" d="M98.11,327.09h5.65l2.52,18.04h.07l2.52-18.04h5.65v25.2h-3.74v-19.08h-.07l-2.88,19.08h-3.31l-2.88-19.08h-.07v19.08h-3.46v-25.2Z"/>
      <path class="cls-3" d="M120.54,327.09h5.36l4.1,25.2h-3.96l-.72-5v.07h-4.5l-.72,4.93h-3.67l4.1-25.2ZM124.86,343.94l-1.76-12.46h-.07l-1.73,12.46h3.56Z"/>
      <path class="cls-3" d="M133.36,330.69h-4.14v-3.6h12.24v3.6h-4.14v21.6h-3.96v-21.6Z"/>
      <path class="cls-3" d="M143.37,327.09h3.96v25.2h-3.96v-25.2Z"/>
      <path class="cls-3" d="M151.52,351.03c-1-1.08-1.49-2.6-1.49-4.57v-13.54c0-1.97.5-3.49,1.49-4.57s2.44-1.62,4.34-1.62,3.34.54,4.34,1.62,1.49,2.6,1.49,4.57v2.66h-3.74v-2.92c0-1.56-.66-2.34-1.98-2.34s-1.98.78-1.98,2.34v14.08c0,1.54.66,2.3,1.98,2.3s1.98-.77,1.98-2.3v-3.85h3.74v3.56c0,1.97-.5,3.49-1.49,4.57s-2.44,1.62-4.34,1.62-3.34-.54-4.34-1.62Z"/>
      <path class="cls-3" d="M170.62,351.01c-.98-1.09-1.48-2.66-1.48-4.7v-1.44h3.74v1.73c0,1.63.68,2.45,2.05,2.45.67,0,1.18-.2,1.53-.59.35-.4.52-1.04.52-1.93,0-1.06-.24-1.99-.72-2.79-.48-.8-1.37-1.77-2.66-2.9-1.63-1.44-2.77-2.74-3.42-3.91-.65-1.16-.97-2.48-.97-3.94,0-1.99.5-3.53,1.51-4.63,1.01-1.09,2.47-1.64,4.39-1.64s3.33.55,4.3,1.64c.97,1.09,1.46,2.66,1.46,4.7v1.04h-3.74v-1.3c0-.86-.17-1.49-.5-1.89-.34-.4-.83-.59-1.48-.59-1.32,0-1.98.8-1.98,2.41,0,.91.25,1.76.74,2.56s1.39,1.75,2.68,2.88c1.66,1.44,2.8,2.75,3.42,3.92s.94,2.56.94,4.14c0,2.06-.51,3.65-1.53,4.75-1.02,1.1-2.5,1.66-4.45,1.66s-3.37-.55-4.36-1.64Z"/>
      <path class="cls-3" d="M186.31,330.69h-4.14v-3.6h12.24v3.6h-4.14v21.6h-3.96v-21.6Z"/>
      <path class="cls-3" d="M197.69,351.01c-1.01-1.09-1.51-2.66-1.51-4.7v-19.22h3.96v19.51c0,.86.17,1.49.52,1.87.35.38.85.58,1.49.58s1.15-.19,1.49-.58.52-1.01.52-1.87v-19.51h3.82v19.22c0,2.04-.5,3.61-1.51,4.7s-2.47,1.64-4.39,1.64-3.38-.55-4.39-1.64Z"/>
      <path class="cls-3" d="M210.79,327.09h6.05c1.97,0,3.44.53,4.43,1.58.98,1.06,1.48,2.6,1.48,4.64v12.74c0,2.04-.49,3.59-1.48,4.64-.98,1.06-2.46,1.58-4.43,1.58h-6.05v-25.2ZM216.77,348.69c.65,0,1.15-.19,1.49-.58.35-.38.52-1.01.52-1.87v-13.1c0-.86-.17-1.49-.52-1.87-.35-.38-.85-.58-1.49-.58h-2.02v18h2.02Z"/>
      <path class="cls-3" d="M225.41,327.09h3.96v25.2h-3.96v-25.2Z"/>
      <path class="cls-3" d="M233.58,351c-1.03-1.1-1.55-2.66-1.55-4.68v-13.25c0-2.02.52-3.58,1.55-4.68,1.03-1.1,2.52-1.66,4.46-1.66s3.43.55,4.46,1.66c1.03,1.1,1.55,2.66,1.55,4.68v13.25c0,2.02-.52,3.58-1.55,4.68-1.03,1.1-2.52,1.66-4.46,1.66s-3.43-.55-4.46-1.66ZM240.1,346.57v-13.75c0-1.66-.68-2.48-2.05-2.48s-2.05.83-2.05,2.48v13.75c0,1.66.68,2.48,2.05,2.48s2.05-.83,2.05-2.48Z"/>
      <path class="cls-3" d="M247.51,351.01c-.98-1.09-1.48-2.66-1.48-4.7v-1.44h3.74v1.73c0,1.63.68,2.45,2.05,2.45.67,0,1.18-.2,1.53-.59.35-.4.52-1.04.52-1.93,0-1.06-.24-1.99-.72-2.79-.48-.8-1.37-1.77-2.66-2.9-1.63-1.44-2.77-2.74-3.42-3.91-.65-1.16-.97-2.48-.97-3.94,0-1.99.5-3.53,1.51-4.63,1.01-1.09,2.47-1.64,4.39-1.64s3.33.55,4.3,1.64c.97,1.09,1.46,2.66,1.46,4.7v1.04h-3.74v-1.3c0-.86-.17-1.49-.5-1.89-.34-.4-.83-.59-1.48-.59-1.32,0-1.98.8-1.98,2.41,0,.91.25,1.76.74,2.56s1.39,1.75,2.68,2.88c1.66,1.44,2.8,2.75,3.42,3.92s.94,2.56.94,4.14c0,2.06-.51,3.65-1.53,4.75-1.02,1.1-2.5,1.66-4.45,1.66s-3.37-.55-4.36-1.64Z"/>
    </g>
  </g>
</svg>