<?xml version="1.0" encoding="UTF-8"?>
<svg id="Layer_2" data-name="Layer 2" xmlns="http://www.w3.org/2000/svg" viewBox="0 0 110.74 110.74">
  <defs>
    <style>
      .cls-1 {
        fill: #444445;
      }

      .cls-1, .cls-2 {
        stroke-width: 0px;
      }

      .cls-2 {
        fill: #fff;
      }
    </style>
  </defs>
  <g id="Layer_1-2" data-name="Layer 1">
    <g id="logo">
      <circle class="cls-1" cx="55.37" cy="55.37" r="55.37"/>
      <g>
        <polygon class="cls-2" points="65.4 75.26 64.64 50.6 59.88 75.26 44.92 75.26 40.06 50.75 39.35 75.26 24.36 75.26 28.7 34.94 47.93 34.94 52.26 58.52 56.05 34.94 76.05 34.94 80.38 75.26 65.4 75.26"/>
        <path class="cls-2" d="m75.66,35.37l4.24,39.45h-14.07l-.87-28.15-5.43,28.15h-14.24l-5.54-27.93-.82,27.93h-14.07l4.24-39.45h18.48l4.73,25.7,4.13-25.7h19.24m.78-.87h-20.76l-.12.73-3.33,20.72-3.81-20.74-.13-.71h-19.98l-.08.78-4.24,39.45-.1.96h15.89l.02-.84.59-20.24,4.05,20.39.14.7h15.67l.14-.7,3.95-20.48.63,20.34.03.84h15.89l-.1-.96-4.24-39.45-.08-.78h0Z"/>
      </g>
      <g>
        <path class="cls-2" d="m85.98,75.54c-1.63,0-3.05-.59-4.2-1.76-1.15-1.17-1.73-2.59-1.73-4.22s.58-3.05,1.74-4.2c1.15-1.15,2.56-1.74,4.2-1.74s3,.59,4.17,1.76,1.76,2.57,1.76,4.17-.59,3.05-1.76,4.22-2.57,1.76-4.17,1.76Z"/>
        <path class="cls-2" d="m85.98,63.79c1.56,0,2.91.57,4.05,1.71s1.71,2.49,1.71,4.05-.57,2.96-1.71,4.1-2.49,1.71-4.05,1.71-2.95-.57-4.08-1.71c-1.12-1.14-1.68-2.51-1.68-4.1s.56-2.95,1.68-4.08c1.12-1.12,2.48-1.68,4.08-1.68m0-.34c-1.68,0-3.13.6-4.32,1.79-1.18,1.18-1.79,2.64-1.79,4.32s.6,3.14,1.78,4.34c1.18,1.2,2.64,1.81,4.32,1.81s3.09-.61,4.29-1.81,1.81-2.67,1.81-4.35-.61-3.09-1.81-4.29-2.65-1.81-4.29-1.81h0Z"/>
      </g>
    </g>
  </g>
</svg>