<?xml version="1.0" encoding="UTF-8"?>
<svg id="Layer_2" data-name="Layer 2" xmlns="http://www.w3.org/2000/svg" viewBox="0 0 110.74 152.35">
  <defs>
    <style>
      .cls-1 {
        fill: #6abc45;
      }

      .cls-1, .cls-2, .cls-3 {
        stroke-width: .5px;
      }

      .cls-1, .cls-2, .cls-3, .cls-4, .cls-5, .cls-6, .cls-7 {
        stroke-miterlimit: 10;
      }

      .cls-1, .cls-5 {
        stroke: #6abc45;
      }

      .cls-2 {
        fill: #4264b7;
      }

      .cls-2, .cls-4 {
        stroke: #4264b7;
      }

      .cls-3 {
        fill: #ce1d33;
      }

      .cls-3, .cls-6 {
        stroke: #ce1d33;
      }

      .cls-4, .cls-5, .cls-6 {
        stroke-width: 2px;
      }

      .cls-4, .cls-5, .cls-6, .cls-7 {
        fill: none;
      }

      .cls-7 {
        stroke: #fff;
      }

      .cls-8 {
        fill: #444;
      }

      .cls-8, .cls-9, .cls-10 {
        stroke-width: 0px;
      }

      .cls-9 {
        fill: #fff;
      }

      .cls-10 {
        fill: #f4f4f4;
      }
    </style>
  </defs>
  <g id="Layer_2-2" data-name="Layer 2">
    <g>
      <circle class="cls-8" cx="55.37" cy="55.37" r="55.37"/>
      <g>
        <g>
          <path class="cls-2" d="M91.31,55.75c0,19.87-16.11,35.98-35.98,35.98s-35.98-16.11-35.98-35.98S35.46,19.77,55.33,19.77c8.33,0,16,2.83,22.1,7.6-3.22,1.86-5.37,5.33-5.37,9.31,0,5.94,4.81,10.75,10.75,10.75,2.61,0,5-.94,6.86-2.47,1.07,3.4,1.65,7.04,1.65,10.79Z"/>
          <path class="cls-4" d="M93.55,36.68c0,3.32-1.51,6.3-3.89,8.28-1.86,1.53-4.25,2.47-6.86,2.47-5.94,0-10.75-4.81-10.75-10.75,0-3.98,2.16-7.45,5.37-9.31,1.58-.91,3.4-1.43,5.37-1.43,5.94,0,10.75,4.81,10.75,10.75Z"/>
        </g>
        <g>
          <path class="cls-1" d="M92.82,54.24c0,19.87-16.11,35.98-35.98,35.98s-35.98-16.11-35.98-35.98S36.97,18.26,56.84,18.26c8.33,0,16,2.83,22.1,7.6-3.22,1.86-5.37,5.33-5.37,9.31,0,5.94,4.81,10.75,10.75,10.75,2.61,0,5-.94,6.86-2.47,1.07,3.4,1.65,7.04,1.65,10.79Z"/>
          <path class="cls-5" d="M95.06,35.17c0,3.32-1.51,6.3-3.89,8.28-1.86,1.53-4.25,2.47-6.86,2.47-5.94,0-10.75-4.81-10.75-10.75,0-3.98,2.16-7.45,5.37-9.31,1.58-.91,3.4-1.43,5.37-1.43,5.94,0,10.75,4.81,10.75,10.75Z"/>
        </g>
        <g>
          <path class="cls-3" d="M91.31,52.89c0,19.87-16.11,35.98-35.98,35.98s-35.98-16.11-35.98-35.98S35.46,16.91,55.33,16.91c8.33,0,16,2.83,22.1,7.6-3.22,1.86-5.37,5.33-5.37,9.31,0,5.94,4.81,10.75,10.75,10.75,2.61,0,5-.94,6.86-2.47,1.07,3.4,1.65,7.04,1.65,10.79Z"/>
          <path class="cls-6" d="M93.55,33.82c0,3.32-1.51,6.3-3.89,8.28-1.86,1.53-4.25,2.47-6.86,2.47-5.94,0-10.75-4.81-10.75-10.75,0-3.98,2.16-7.45,5.37-9.31,1.58-.91,3.4-1.43,5.37-1.43,5.94,0,10.75,4.81,10.75,10.75Z"/>
        </g>
        <g>
          <path class="cls-9" d="M91.31,54.24c0,19.87-16.11,35.98-35.98,35.98s-35.98-16.11-35.98-35.98S35.46,18.26,55.33,18.26c8.33,0,16,2.83,22.1,7.6-3.22,1.86-5.37,5.33-5.37,9.31,0,5.94,4.81,10.75,10.75,10.75,2.61,0,5-.94,6.86-2.47,1.07,3.4,1.65,7.04,1.65,10.79Z"/>
          <path class="cls-7" d="M93.55,35.17c0,3.32-1.51,6.3-3.89,8.28-1.86,1.53-4.25,2.47-6.86,2.47-5.94,0-10.75-4.81-10.75-10.75,0-3.98,2.16-7.45,5.37-9.31,1.58-.91,3.4-1.43,5.37-1.43,5.94,0,10.75,4.81,10.75,10.75Z"/>
        </g>
      </g>
      <g>
        <path class="cls-10" d="M17.6,131.27c-.66-.72-1-1.74-1-3.05v-9.02c0-1.31.33-2.33,1-3.05s1.63-1.08,2.89-1.08,2.23.36,2.89,1.08,1,1.74,1,3.05v1.78h-2.5v-1.94c0-1.04-.44-1.56-1.32-1.56s-1.32.52-1.32,1.56v9.38c0,1.02.44,1.54,1.32,1.54s1.32-.51,1.32-1.54v-2.57h2.5v2.38c0,1.31-.33,2.33-1,3.05s-1.63,1.08-2.89,1.08-2.23-.36-2.89-1.08Z"/>
        <path class="cls-10" d="M26.45,115.31h3.91c1.36,0,2.35.32,2.98.95s.94,1.6.94,2.92v1.03c0,1.74-.58,2.85-1.73,3.31v.05c.64.19,1.09.58,1.36,1.18.26.59.4,1.38.4,2.38v2.95c0,.48.02.87.05,1.16s.11.59.24.88h-2.69c-.1-.27-.16-.53-.19-.77-.03-.24-.05-.67-.05-1.3v-3.07c0-.77-.12-1.3-.37-1.61-.25-.3-.68-.46-1.28-.46h-.91v7.2h-2.64v-16.8ZM30.05,122.51c.53,0,.92-.14,1.19-.41.26-.27.4-.73.4-1.37v-1.3c0-.61-.11-1.05-.32-1.32-.22-.27-.56-.41-1.02-.41h-1.2v4.8h.96Z"/>
        <path class="cls-10" d="M37.44,131.25c-.69-.74-1.03-1.78-1.03-3.12v-8.83c0-1.34.34-2.38,1.03-3.12.69-.74,1.68-1.1,2.98-1.1s2.29.37,2.98,1.1c.69.74,1.03,1.78,1.03,3.12v8.83c0,1.34-.34,2.38-1.03,3.12-.69.74-1.68,1.1-2.98,1.1s-2.29-.37-2.98-1.1ZM41.78,128.29v-9.17c0-1.1-.46-1.66-1.37-1.66s-1.37.55-1.37,1.66v9.17c0,1.1.46,1.66,1.37,1.66s1.37-.55,1.37-1.66Z"/>
        <path class="cls-10" d="M46.68,115.31h3.77l1.68,12.02h.05l1.68-12.02h3.77v16.8h-2.5v-12.72h-.05l-1.92,12.72h-2.21l-1.92-12.72h-.05v12.72h-2.3v-16.8Z"/>
        <path class="cls-10" d="M62.11,115.31h3.58l2.74,16.8h-2.64l-.48-3.34v.05h-3l-.48,3.29h-2.45l2.74-16.8ZM64.99,126.54l-1.18-8.3h-.05l-1.15,8.3h2.38Z"/>
        <path class="cls-10" d="M71.13,117.71h-2.76v-2.4h8.16v2.4h-2.76v14.4h-2.64v-14.4Z"/>
        <path class="cls-10" d="M78.29,115.31h2.64v16.8h-2.64v-16.8Z"/>
        <path class="cls-10" d="M84.2,131.27c-.66-.72-1-1.74-1-3.05v-9.02c0-1.31.33-2.33,1-3.05s1.63-1.08,2.89-1.08,2.23.36,2.89,1.08,1,1.74,1,3.05v1.78h-2.5v-1.94c0-1.04-.44-1.56-1.32-1.56s-1.32.52-1.32,1.56v9.38c0,1.02.44,1.54,1.32,1.54s1.32-.51,1.32-1.54v-2.57h2.5v2.38c0,1.31-.33,2.33-1,3.05s-1.63,1.08-2.89,1.08-2.23-.36-2.89-1.08Z"/>
        <path class="cls-10" d="M23.66,151.26c-.66-.73-.98-1.77-.98-3.13v-.96h2.5v1.15c0,1.09.46,1.63,1.37,1.63.45,0,.79-.13,1.02-.4.23-.26.35-.69.35-1.28,0-.7-.16-1.32-.48-1.86-.32-.54-.91-1.18-1.78-1.93-1.09-.96-1.85-1.83-2.28-2.6-.43-.78-.65-1.65-.65-2.63,0-1.33.34-2.36,1.01-3.08.67-.73,1.65-1.09,2.93-1.09s2.22.36,2.87,1.09c.65.73.97,1.77.97,3.13v.7h-2.5v-.86c0-.58-.11-1-.34-1.26-.22-.26-.55-.4-.98-.4-.88,0-1.32.54-1.32,1.61,0,.61.16,1.18.49,1.7s.92,1.17,1.79,1.92c1.1.96,1.86,1.83,2.28,2.62.42.78.62,1.7.62,2.76,0,1.38-.34,2.43-1.02,3.17-.68.74-1.67,1.1-2.96,1.1s-2.25-.36-2.9-1.09Z"/>
        <path class="cls-10" d="M34.61,137.71h-2.76v-2.4h8.16v2.4h-2.76v14.4h-2.64v-14.4Z"/>
        <path class="cls-10" d="M42.67,151.26c-.67-.73-1.01-1.77-1.01-3.13v-12.82h2.64v13.01c0,.58.12.99.35,1.25.23.26.56.38,1,.38s.76-.13,1-.38c.23-.26.35-.67.35-1.25v-13.01h2.54v12.82c0,1.36-.34,2.4-1.01,3.13-.67.73-1.65,1.09-2.93,1.09s-2.26-.36-2.93-1.09Z"/>
        <path class="cls-10" d="M51.89,135.31h4.03c1.31,0,2.3.35,2.95,1.06s.98,1.74.98,3.1v8.5c0,1.36-.33,2.39-.98,3.1s-1.64,1.06-2.95,1.06h-4.03v-16.8ZM55.87,149.71c.43,0,.76-.13,1-.38.23-.26.35-.67.35-1.25v-8.74c0-.58-.12-.99-.35-1.25-.23-.26-.56-.38-1-.38h-1.34v12h1.34Z"/>
        <path class="cls-10" d="M62.11,135.31h2.64v16.8h-2.64v-16.8Z"/>
        <path class="cls-10" d="M68.04,151.25c-.69-.74-1.03-1.78-1.03-3.12v-8.83c0-1.34.34-2.38,1.03-3.12.69-.74,1.68-1.1,2.98-1.1s2.29.37,2.98,1.1c.69.74,1.03,1.78,1.03,3.12v8.83c0,1.34-.34,2.38-1.03,3.12-.69.74-1.68,1.1-2.98,1.1s-2.29-.37-2.98-1.1ZM72.38,148.29v-9.17c0-1.1-.46-1.66-1.37-1.66s-1.37.55-1.37,1.66v9.17c0,1.1.46,1.66,1.37,1.66s1.37-.55,1.37-1.66Z"/>
        <path class="cls-10" d="M77.81,151.26c-.66-.73-.98-1.77-.98-3.13v-.96h2.5v1.15c0,1.09.46,1.63,1.37,1.63.45,0,.79-.13,1.02-.4.23-.26.35-.69.35-1.28,0-.7-.16-1.32-.48-1.86-.32-.54-.91-1.18-1.78-1.93-1.09-.96-1.85-1.83-2.28-2.6-.43-.78-.65-1.65-.65-2.63,0-1.33.34-2.36,1.01-3.08.67-.73,1.65-1.09,2.93-1.09s2.22.36,2.87,1.09c.65.73.97,1.77.97,3.13v.7h-2.5v-.86c0-.58-.11-1-.34-1.26-.22-.26-.55-.4-.98-.4-.88,0-1.32.54-1.32,1.61,0,.61.16,1.18.49,1.7s.92,1.17,1.79,1.92c1.1.96,1.86,1.83,2.28,2.62.42.78.62,1.7.62,2.76,0,1.38-.34,2.43-1.02,3.17-.68.74-1.67,1.1-2.96,1.1s-2.25-.36-2.9-1.09Z"/>
      </g>
    </g>
  </g>
</svg>