<?xml version="1.0" encoding="UTF-8"?>
<svg id="Layer_2" data-name="Layer 2" xmlns="http://www.w3.org/2000/svg" viewBox="0 0 110.74 124.76">
  <defs>
    <style>
      .cls-1 {
        fill: #444;
      }

      .cls-1, .cls-2, .cls-3, .cls-4, .cls-5 {
        stroke-width: 0px;
      }

      .cls-2 {
        fill: red;
      }

      .cls-3 {
        fill: #f4f4f4;
      }

      .cls-4 {
        fill: lime;
      }

      .cls-5 {
        fill: blue;
      }
    </style>
  </defs>
  <g id="Layer_2-2" data-name="Layer 2">
    <circle class="cls-1" cx="55.37" cy="55.37" r="55.37"/>
    <g id="C">
      <g>
        <path class="cls-2" d="M75.94,64.73c-2.01,0-3.78.98-4.89,2.48l2.81,9.3c.65.24,1.35.37,2.08.37,3.36,0,6.08-2.72,6.08-6.08s-2.72-6.08-6.08-6.08Z"/>
        <path class="cls-4" d="M77.36,66.15c-2.01,0-3.78.98-4.89,2.48l2.81,9.3c.65.24,1.35.37,2.08.37,3.36,0,6.08-2.72,6.08-6.08s-2.72-6.08-6.08-6.08Z"/>
        <path class="cls-5" d="M75.94,67.56c-2.01,0-3.78.98-4.89,2.48l2.81,9.3c.65.24,1.35.37,2.08.37,3.36,0,6.08-2.72,6.08-6.08s-2.72-6.08-6.08-6.08Z"/>
        <path class="cls-3" d="M75.94,66.15c-2.01,0-3.78.98-4.89,2.48l2.81,9.3c.65.24,1.35.37,2.08.37,3.36,0,6.08-2.72,6.08-6.08s-2.72-6.08-6.08-6.08Z"/>
      </g>
      <g>
        <polygon class="cls-2" points="52.29 29.3 56.85 44.42 68.08 29.3 52.29 29.3"/>
        <polygon class="cls-2" points="73.08 78.61 57.28 78.61 68.51 63.49 73.08 78.61"/>
        <path class="cls-2" d="M50.88,78.61h-.63c-4.37,0-8.67-1.27-12.25-3.78-.03-.02-.05-.04-.08-.05-6.43-4.53-10.63-12.01-10.63-20.47,0-11.75,8.1-21.6,19.02-24.29v33.47l4.56,15.12Z"/>
      </g>
      <g>
        <polygon class="cls-4" points="53.7 30.71 58.26 45.84 69.5 30.71 53.7 30.71"/>
        <polygon class="cls-4" points="74.49 80.03 58.7 80.03 69.93 64.9 74.49 80.03"/>
        <path class="cls-4" d="M52.3,80.03h-.63c-4.37,0-8.67-1.27-12.25-3.78-.03-.02-.05-.04-.08-.05-6.43-4.53-10.63-12.01-10.63-20.47,0-11.75,8.1-21.6,19.02-24.29v33.47l4.56,15.12Z"/>
      </g>
      <g>
        <polygon class="cls-5" points="52.65 32.13 57.21 47.25 68.45 32.13 52.65 32.13"/>
        <polygon class="cls-5" points="73.08 81.44 57.28 81.44 68.51 66.32 73.08 81.44"/>
        <path class="cls-5" d="M50.88,81.44h-.63c-4.37,0-8.67-1.27-12.25-3.78-.03-.02-.05-.04-.08-.05-6.43-4.53-10.63-12.01-10.63-20.47,0-11.75,8.1-21.6,19.02-24.29v33.47l4.56,15.12Z"/>
      </g>
      <g>
        <polygon class="cls-3" points="52.29 30.71 56.85 45.84 68.08 30.71 52.29 30.71"/>
        <polygon class="cls-3" points="73.08 80.03 57.28 80.03 68.51 64.9 73.08 80.03"/>
        <path class="cls-3" d="M50.88,80.03h-.63c-4.37,0-8.67-1.27-12.25-3.78-.03-.02-.05-.04-.08-.05-6.43-4.53-10.63-12.01-10.63-20.47,0-11.75,8.1-21.6,19.02-24.29v33.47l4.56,15.12Z"/>
      </g>
    </g>
    <g>
      <path class="cls-3" d="M20.05,124.19c-.35-.38-.53-.92-.53-1.62v-4.79c0-.7.18-1.24.53-1.62s.86-.57,1.53-.57,1.18.19,1.53.57.53.92.53,1.62v.94h-1.32v-1.03c0-.55-.23-.83-.7-.83s-.7.28-.7.83v4.98c0,.54.23.82.7.82s.7-.27.7-.82v-1.36h1.32v1.26c0,.7-.18,1.24-.53,1.62s-.86.57-1.53.57-1.18-.19-1.53-.57Z"/>
      <path class="cls-3" d="M24.48,115.72h2.08c.72,0,1.25.17,1.58.5.33.34.5.85.5,1.55v.55c0,.93-.31,1.51-.92,1.76v.03c.34.1.58.31.72.62.14.31.21.73.21,1.26v1.57c0,.25,0,.46.03.62.02.16.06.31.13.46h-1.43c-.05-.14-.08-.28-.1-.41-.02-.13-.03-.36-.03-.69v-1.63c0-.41-.07-.69-.2-.85-.13-.16-.36-.24-.68-.24h-.48v3.82h-1.4v-8.92ZM26.4,119.54c.28,0,.49-.07.63-.22.14-.14.21-.39.21-.73v-.69c0-.32-.06-.56-.17-.7-.11-.14-.3-.22-.54-.22h-.64v2.55h.51Z"/>
      <path class="cls-3" d="M30.06,124.18c-.37-.39-.55-.94-.55-1.66v-4.69c0-.71.18-1.27.55-1.66.36-.39.89-.59,1.58-.59s1.21.2,1.58.59c.36.39.55.94.55,1.66v4.69c0,.71-.18,1.27-.55,1.66-.37.39-.89.59-1.58.59s-1.21-.2-1.58-.59ZM32.37,122.61v-4.87c0-.59-.24-.88-.73-.88s-.73.29-.73.88v4.87c0,.59.24.88.73.88s.73-.29.73-.88Z"/>
      <path class="cls-3" d="M34.71,115.72h2l.89,6.38h.03l.89-6.38h2v8.92h-1.32v-6.75h-.03l-1.02,6.75h-1.17l-1.02-6.75h-.03v6.75h-1.22v-8.92Z"/>
      <path class="cls-3" d="M42.65,115.72h1.9l1.45,8.92h-1.4l-.25-1.77v.03h-1.59l-.25,1.74h-1.3l1.45-8.92ZM44.18,121.68l-.62-4.41h-.03l-.61,4.41h1.26Z"/>
      <path class="cls-3" d="M47.18,117h-1.46v-1.27h4.33v1.27h-1.46v7.64h-1.4v-7.64Z"/>
      <path class="cls-3" d="M50.72,115.72h1.4v8.92h-1.4v-8.92Z"/>
      <path class="cls-3" d="M53.61,124.19c-.35-.38-.53-.92-.53-1.62v-4.79c0-.7.18-1.24.53-1.62s.86-.57,1.53-.57,1.18.19,1.53.57.53.92.53,1.62v.94h-1.32v-1.03c0-.55-.23-.83-.7-.83s-.7.28-.7.83v4.98c0,.54.23.82.7.82s.7-.27.7-.82v-1.36h1.32v1.26c0,.7-.18,1.24-.53,1.62s-.86.57-1.53.57-1.18-.19-1.53-.57Z"/>
      <path class="cls-3" d="M60.36,124.19c-.35-.39-.52-.94-.52-1.66v-.51h1.32v.61c0,.58.24.87.73.87.24,0,.42-.07.54-.21.12-.14.18-.37.18-.68,0-.37-.08-.7-.25-.99-.17-.28-.48-.63-.94-1.03-.58-.51-.98-.97-1.21-1.38-.23-.41-.34-.88-.34-1.39,0-.7.18-1.25.53-1.64.36-.39.87-.58,1.55-.58s1.18.19,1.52.58c.34.39.52.94.52,1.66v.37h-1.32v-.46c0-.31-.06-.53-.18-.67-.12-.14-.29-.21-.52-.21-.47,0-.7.28-.7.85,0,.32.09.62.26.9s.49.62.95,1.02c.59.51.99.97,1.21,1.39s.33.9.33,1.46c0,.73-.18,1.29-.54,1.68-.36.39-.89.59-1.57.59s-1.19-.19-1.54-.58Z"/>
      <path class="cls-3" d="M65.92,117h-1.46v-1.27h4.33v1.27h-1.46v7.64h-1.4v-7.64Z"/>
      <path class="cls-3" d="M69.94,124.19c-.36-.39-.53-.94-.53-1.66v-6.8h1.4v6.9c0,.31.06.53.18.66.12.14.3.2.53.2s.41-.07.53-.2.18-.36.18-.66v-6.9h1.35v6.8c0,.72-.18,1.28-.53,1.66s-.87.58-1.55.58-1.2-.19-1.55-.58Z"/>
      <path class="cls-3" d="M74.58,115.72h2.14c.7,0,1.22.19,1.57.56.35.37.52.92.52,1.64v4.51c0,.72-.17,1.27-.52,1.64-.35.37-.87.56-1.57.56h-2.14v-8.92ZM76.69,123.36c.23,0,.41-.07.53-.2.12-.14.18-.36.18-.66v-4.64c0-.31-.06-.53-.18-.66-.12-.14-.3-.2-.53-.2h-.71v6.37h.71Z"/>
      <path class="cls-3" d="M79.75,115.72h1.4v8.92h-1.4v-8.92Z"/>
      <path class="cls-3" d="M82.64,124.18c-.37-.39-.55-.94-.55-1.66v-4.69c0-.71.18-1.27.55-1.66.36-.39.89-.59,1.58-.59s1.21.2,1.58.59c.36.39.55.94.55,1.66v4.69c0,.71-.18,1.27-.55,1.66-.37.39-.89.59-1.58.59s-1.21-.2-1.58-.59ZM84.94,122.61v-4.87c0-.59-.24-.88-.73-.88s-.73.29-.73.88v4.87c0,.59.24.88.73.88s.73-.29.73-.88Z"/>
      <path class="cls-3" d="M87.57,124.19c-.35-.39-.52-.94-.52-1.66v-.51h1.32v.61c0,.58.24.87.73.87.24,0,.42-.07.54-.21.12-.14.18-.37.18-.68,0-.37-.08-.7-.25-.99-.17-.28-.48-.63-.94-1.03-.58-.51-.98-.97-1.21-1.38-.23-.41-.34-.88-.34-1.39,0-.7.18-1.25.53-1.64.36-.39.87-.58,1.55-.58s1.18.19,1.52.58c.34.39.52.94.52,1.66v.37h-1.32v-.46c0-.31-.06-.53-.18-.67-.12-.14-.29-.21-.52-.21-.47,0-.7.28-.7.85,0,.32.09.62.26.9s.49.62.95,1.02c.59.51.99.97,1.21,1.39s.33.9.33,1.46c0,.73-.18,1.29-.54,1.68-.36.39-.89.59-1.57.59s-1.19-.19-1.54-.58Z"/>
    </g>
  </g>
</svg>