<?xml version="1.0" encoding="UTF-8"?>
<svg id="Layer_2" data-name="Layer 2" xmlns="http://www.w3.org/2000/svg" viewBox="0 0 446.75 65.45">
  <defs>
    <style>
      .cls-1 {
        fill: #fff;
        stroke-width: 0px;
      }
    </style>
  </defs>
  <g id="Layer_1-2" data-name="Layer 1">
    <g id="section_headers" data-name="section headers">
      <g id="photography">
        <path class="cls-1" d="m23.18,0c3.21,0,5.95.47,8.21,1.4,2.26.94,4.09,2.17,5.51,3.71,1.42,1.54,2.45,3.29,3.1,5.26.65,1.97.97,4.01.97,6.12s-.32,4.09-.97,6.08c-.65,1.99-1.68,3.76-3.1,5.29-1.42,1.54-3.25,2.77-5.51,3.71-2.26.94-4.99,1.4-8.21,1.4h-11.88v18.43H0V0h23.18Zm-3.1,24.19c1.3,0,2.54-.1,3.74-.29,1.2-.19,2.26-.56,3.17-1.12.91-.55,1.64-1.33,2.2-2.34s.83-2.33.83-3.96-.28-2.95-.83-3.96-1.28-1.79-2.2-2.34-1.97-.92-3.17-1.12c-1.2-.19-2.45-.29-3.74-.29h-8.78v15.41h8.78Z"/>
        <path class="cls-1" d="m57.17,0v19.37h.22c1.3-2.16,2.95-3.73,4.97-4.72,2.02-.98,3.98-1.48,5.9-1.48,2.74,0,4.98.37,6.73,1.12,1.75.75,3.13,1.78,4.14,3.1,1.01,1.32,1.72,2.93,2.12,4.82.41,1.9.61,4,.61,6.3v22.9h-10.22v-21.02c0-3.07-.48-5.36-1.44-6.88-.96-1.51-2.66-2.27-5.11-2.27-2.79,0-4.8.83-6.05,2.48-1.25,1.66-1.87,4.38-1.87,8.17v19.51h-10.22V0h10.22Z"/>
        <path class="cls-1" d="m89.85,24.73c.91-2.42,2.21-4.49,3.89-6.19,1.68-1.7,3.7-3.02,6.05-3.96,2.35-.94,4.99-1.4,7.92-1.4s5.58.47,7.96,1.4c2.38.94,4.4,2.26,6.08,3.96,1.68,1.7,2.98,3.77,3.89,6.19.91,2.42,1.37,5.12,1.37,8.1s-.46,5.66-1.37,8.06c-.91,2.4-2.21,4.45-3.89,6.16-1.68,1.71-3.71,3.01-6.08,3.92s-5.03,1.37-7.96,1.37-5.57-.46-7.92-1.37c-2.35-.91-4.37-2.22-6.05-3.92-1.68-1.7-2.98-3.75-3.89-6.16-.91-2.4-1.37-5.09-1.37-8.06s.46-5.68,1.37-8.1Zm9.29,12.46c.29,1.42.78,2.69,1.48,3.82.7,1.13,1.62,2.03,2.77,2.7,1.15.67,2.59,1.01,4.32,1.01s3.18-.33,4.36-1.01c1.18-.67,2.11-1.57,2.81-2.7.7-1.13,1.19-2.4,1.48-3.82.29-1.42.43-2.87.43-4.36s-.14-2.95-.43-4.39c-.29-1.44-.78-2.71-1.48-3.82-.7-1.1-1.63-2-2.81-2.7-1.18-.7-2.63-1.04-4.36-1.04s-3.17.35-4.32,1.04c-1.15.7-2.08,1.6-2.77,2.7-.7,1.1-1.19,2.38-1.48,3.82-.29,1.44-.43,2.9-.43,4.39s.14,2.94.43,4.36Z"/>
        <path class="cls-1" d="m154.08,14.18v6.84h-7.49v18.43c0,1.73.29,2.88.86,3.46.58.58,1.73.86,3.46.86.58,0,1.13-.02,1.66-.07.53-.05,1.03-.12,1.51-.22v7.92c-.86.14-1.82.24-2.88.29-1.06.05-2.09.07-3.1.07-1.58,0-3.08-.11-4.5-.32-1.42-.22-2.66-.64-3.74-1.26s-1.93-1.51-2.56-2.66c-.62-1.15-.94-2.66-.94-4.54v-21.96h-6.19v-6.84h6.19V3.02h10.22v11.16h7.49Z"/>
        <path class="cls-1" d="m159.19,24.73c.91-2.42,2.21-4.49,3.89-6.19,1.68-1.7,3.7-3.02,6.05-3.96,2.35-.94,4.99-1.4,7.92-1.4s5.58.47,7.96,1.4c2.38.94,4.4,2.26,6.08,3.96,1.68,1.7,2.98,3.77,3.89,6.19.91,2.42,1.37,5.12,1.37,8.1s-.46,5.66-1.37,8.06c-.91,2.4-2.21,4.45-3.89,6.16-1.68,1.71-3.71,3.01-6.08,3.92s-5.03,1.37-7.96,1.37-5.57-.46-7.92-1.37c-2.35-.91-4.37-2.22-6.05-3.92-1.68-1.7-2.98-3.75-3.89-6.16-.91-2.4-1.37-5.09-1.37-8.06s.46-5.68,1.37-8.1Zm9.29,12.46c.29,1.42.78,2.69,1.48,3.82.7,1.13,1.62,2.03,2.77,2.7,1.15.67,2.59,1.01,4.32,1.01s3.18-.33,4.36-1.01c1.18-.67,2.11-1.57,2.81-2.7.7-1.13,1.19-2.4,1.48-3.82.29-1.42.43-2.87.43-4.36s-.14-2.95-.43-4.39c-.29-1.44-.78-2.71-1.48-3.82-.7-1.1-1.63-2-2.81-2.7-1.18-.7-2.63-1.04-4.36-1.04s-3.17.35-4.32,1.04c-1.15.7-2.08,1.6-2.77,2.7-.7,1.1-1.19,2.38-1.48,3.82-.29,1.44-.43,2.9-.43,4.39s.14,2.94.43,4.36Z"/>
        <path class="cls-1" d="m238.14,54.14c-.41,1.92-1.29,3.71-2.63,5.36-1.34,1.66-3.29,3.06-5.83,4.21-2.54,1.15-5.95,1.73-10.22,1.73-1.82,0-3.68-.23-5.58-.68-1.9-.46-3.62-1.17-5.18-2.12-1.56-.96-2.86-2.2-3.89-3.71-1.03-1.51-1.62-3.33-1.76-5.44h10.15c.48,1.92,1.42,3.25,2.81,4,1.39.74,3,1.12,4.82,1.12,2.88,0,4.98-.86,6.3-2.59,1.32-1.73,1.96-3.91,1.91-6.55v-4.9h-.14c-1.11,1.97-2.68,3.42-4.72,4.36-2.04.94-4.19,1.4-6.44,1.4-2.78,0-5.18-.49-7.2-1.48-2.02-.98-3.67-2.33-4.97-4.03-1.3-1.7-2.24-3.7-2.84-5.98-.6-2.28-.9-4.69-.9-7.24,0-2.4.35-4.72,1.04-6.95.7-2.23,1.72-4.2,3.06-5.9,1.34-1.7,3.01-3.06,5-4.07,1.99-1.01,4.28-1.51,6.88-1.51,2.45,0,4.59.46,6.44,1.37,1.85.91,3.4,2.45,4.64,4.61h.14v-4.97h9.72v34.85c0,1.49-.2,3.19-.61,5.11Zm-14-12.38c1.1-.58,2.02-1.34,2.74-2.3.72-.96,1.26-2.05,1.62-3.28.36-1.22.54-2.51.54-3.85,0-1.54-.14-2.99-.43-4.36-.29-1.37-.77-2.58-1.44-3.64-.67-1.05-1.56-1.9-2.66-2.52-1.1-.62-2.5-.94-4.18-.94-1.44,0-2.68.29-3.71.86-1.03.58-1.9,1.36-2.59,2.34-.7.98-1.2,2.11-1.51,3.38-.31,1.27-.47,2.6-.47,4s.13,2.68.4,4c.26,1.32.72,2.51,1.37,3.56.65,1.06,1.5,1.92,2.56,2.59,1.06.67,2.38,1.01,3.96,1.01,1.44,0,2.71-.29,3.82-.86Z"/>
        <path class="cls-1" d="m256.67,14.18v6.91h.14c.48-1.15,1.13-2.22,1.94-3.2.82-.98,1.75-1.82,2.81-2.52,1.06-.7,2.18-1.24,3.38-1.62,1.2-.38,2.45-.58,3.74-.58.67,0,1.42.12,2.23.36v9.5c-.48-.1-1.06-.18-1.73-.25-.67-.07-1.32-.11-1.94-.11-1.87,0-3.46.31-4.75.94-1.3.62-2.34,1.48-3.13,2.56s-1.36,2.34-1.69,3.78c-.34,1.44-.5,3-.5,4.68v16.78h-10.22V14.18h9.72Z"/>
        <path class="cls-1" d="m274.53,25.63c.14-2.4.74-4.39,1.8-5.98,1.05-1.58,2.4-2.86,4.03-3.82,1.63-.96,3.47-1.64,5.51-2.05,2.04-.41,4.09-.61,6.16-.61,1.87,0,3.77.13,5.69.4,1.92.26,3.67.78,5.26,1.55,1.58.77,2.88,1.84,3.89,3.2s1.51,3.18,1.51,5.44v19.37c0,1.68.1,3.29.29,4.82.19,1.54.53,2.69,1.01,3.46h-10.37c-.19-.58-.35-1.16-.47-1.76-.12-.6-.2-1.21-.25-1.84-1.63,1.68-3.55,2.86-5.76,3.53-2.21.67-4.46,1.01-6.77,1.01-1.78,0-3.43-.22-4.97-.65s-2.88-1.1-4.03-2.02c-1.15-.91-2.05-2.06-2.7-3.46-.65-1.39-.97-3.05-.97-4.97,0-2.11.37-3.85,1.12-5.22.74-1.37,1.7-2.46,2.88-3.28,1.18-.82,2.52-1.43,4.03-1.84,1.51-.41,3.04-.73,4.57-.97,1.54-.24,3.05-.43,4.54-.58,1.49-.14,2.81-.36,3.96-.65,1.15-.29,2.06-.71,2.74-1.26.67-.55.98-1.36.94-2.41,0-1.1-.18-1.98-.54-2.63-.36-.65-.84-1.15-1.44-1.51-.6-.36-1.3-.6-2.09-.72-.79-.12-1.64-.18-2.56-.18-2.02,0-3.6.43-4.75,1.3-1.15.86-1.83,2.3-2.02,4.32h-10.22Zm23.62,7.56c-.43.38-.97.68-1.62.9-.65.22-1.34.4-2.09.54-.75.14-1.52.26-2.34.36-.82.1-1.63.22-2.45.36-.77.14-1.52.34-2.27.58-.75.24-1.39.57-1.94.97-.55.41-1,.92-1.33,1.55-.34.62-.5,1.42-.5,2.38s.17,1.68.5,2.3c.33.62.79,1.12,1.37,1.48.58.36,1.25.61,2.02.76.77.14,1.56.22,2.38.22,2.02,0,3.58-.33,4.68-1.01,1.1-.67,1.92-1.48,2.45-2.41.53-.94.85-1.88.97-2.84.12-.96.18-1.73.18-2.3v-3.82Z"/>
        <path class="cls-1" d="m326.01,14.18v4.75h.14c1.25-2.02,2.83-3.48,4.75-4.39,1.92-.91,4.03-1.37,6.34-1.37,2.93,0,5.45.55,7.56,1.66,2.11,1.1,3.86,2.57,5.26,4.39,1.39,1.82,2.42,3.95,3.1,6.37.67,2.42,1.01,4.96,1.01,7.6,0,2.5-.34,4.9-1.01,7.2-.67,2.3-1.69,4.34-3.06,6.12-1.37,1.78-3.07,3.19-5.11,4.25-2.04,1.06-4.43,1.58-7.16,1.58-2.3,0-4.43-.47-6.37-1.4-1.94-.94-3.54-2.32-4.79-4.14h-.14v17.64h-10.22V14.18h9.72Zm13.28,29.52c1.13-.67,2.04-1.55,2.74-2.63.7-1.08,1.19-2.34,1.48-3.78.29-1.44.43-2.9.43-4.39s-.16-2.95-.47-4.39c-.31-1.44-.83-2.72-1.55-3.85-.72-1.13-1.64-2.04-2.77-2.74-1.13-.7-2.51-1.04-4.14-1.04s-3.08.35-4.21,1.04c-1.13.7-2.04,1.6-2.74,2.7-.7,1.1-1.19,2.38-1.48,3.82-.29,1.44-.43,2.93-.43,4.46s.16,2.95.47,4.39c.31,1.44.82,2.7,1.51,3.78.7,1.08,1.62,1.96,2.77,2.63,1.15.67,2.54,1.01,4.18,1.01s3.08-.33,4.21-1.01Z"/>
        <path class="cls-1" d="m370.5,0v19.37h.22c1.3-2.16,2.95-3.73,4.97-4.72,2.02-.98,3.98-1.48,5.9-1.48,2.74,0,4.98.37,6.73,1.12,1.75.75,3.13,1.78,4.14,3.1s1.72,2.93,2.12,4.82c.41,1.9.61,4,.61,6.3v22.9h-10.22v-21.02c0-3.07-.48-5.36-1.44-6.88-.96-1.51-2.66-2.27-5.11-2.27-2.78,0-4.8.83-6.05,2.48-1.25,1.66-1.87,4.38-1.87,8.17v19.51h-10.22V0h10.22Z"/>
        <path class="cls-1" d="m416.73,62.5c-1.97,1.3-4.7,1.94-8.21,1.94-1.06,0-2.1-.04-3.13-.11s-2.08-.16-3.13-.25v-8.42c.96.1,1.94.19,2.95.29,1.01.1,2.02.12,3.02.07,1.34-.14,2.34-.67,2.99-1.58.65-.91.97-1.92.97-3.02,0-.82-.14-1.58-.43-2.3l-13.03-34.92h10.87l8.42,25.49h.14l8.14-25.49h10.58l-15.55,41.83c-1.1,3.02-2.64,5.18-4.61,6.48Z"/>
        <path class="cls-1" d="m446.75,45.86h0c0,3.06-2.48,5.54-5.54,5.54h-.22c-3.06,0-5.54-2.48-5.54-5.54h0c0-3.06,2.48-5.54,5.54-5.54h.22c3.06,0,5.54,2.48,5.54,5.54Z"/>
      </g>
    </g>
  </g>
</svg>